<svg width="136" height="137" viewBox="0 0 136 137" fill="none" xmlns="http://www.w3.org/2000/svg">
  <path d="M84.1187 11.9921C84.1187 13.1481 83.2347 14.0321 82.0787 14.0321H53.9267C52.7707 14.0321 51.8867 13.1481 51.8867 11.9921C51.8867 10.8361 52.7707 9.95215 53.9267 9.95215H82.0787C83.1667 9.95215 84.1187 10.8361 84.1187 11.9921Z" fill="#CDA0FF"/>
  <path d="M84.1187 125.008C84.1187 126.164 83.2347 127.048 82.0787 127.048H53.9267C52.7707 127.048 51.8867 126.164 51.8867 125.008C51.8867 123.852 52.7707 122.968 53.9267 122.968H82.0787C83.1667 122.968 84.1187 123.92 84.1187 125.008Z" fill="#CDA0FF"/>
  <path d="M15.6426 47.148H16.7986C18.2266 47.148 19.3826 45.992 19.3826 44.564C19.3826 43.136 18.2266 41.98 16.7986 41.98H15.6426C14.2146 41.98 13.0586 43.136 13.0586 44.564C13.0586 45.992 14.2146 47.148 15.6426 47.148Z" fill="#CDA0FF"/>
  <path d="M20.6738 42.1162H21.8298C23.2578 42.1162 24.4138 40.9602 24.4138 39.5322C24.4138 38.1042 23.2578 36.9482 21.8298 36.9482H20.6738C19.2458 36.9482 18.0898 38.1042 18.0898 39.5322C18.0898 40.9602 19.2458 42.1162 20.6738 42.1162Z" fill="#CDA0FF"/>
  <path d="M25.7051 37.084H26.8611C28.2891 37.084 29.4451 35.928 29.4451 34.5C29.4451 33.072 28.2891 31.916 26.8611 31.916H25.7051C24.2771 31.916 23.1211 33.072 23.1211 34.5C23.1211 35.928 24.2771 37.084 25.7051 37.084Z" fill="#CDA0FF"/>
  <path d="M30.7363 32.0523H31.8923C33.3203 32.0523 34.4763 30.8963 34.4763 29.4683C34.4763 28.0403 33.3203 26.8843 31.8923 26.8843H30.7363C29.3083 26.8843 28.1523 28.0403 28.1523 29.4683C28.1523 30.8963 29.3083 32.0523 30.7363 32.0523Z" fill="#CDA0FF"/>
  <path d="M35.7715 27.0201H36.9275C38.3555 27.0201 39.5115 25.8641 39.5115 24.4361C39.5115 23.0081 38.3555 21.8521 36.9275 21.8521H35.7715C34.3435 21.8521 33.1875 23.0081 33.1875 24.4361C33.1875 25.8641 34.3435 27.0201 35.7715 27.0201Z" fill="#CDA0FF"/>
  <path d="M40.8028 21.9883H41.9588C43.3868 21.9883 44.5428 20.8323 44.5428 19.4043C44.5428 17.9763 43.3868 16.8203 41.9588 16.8203H40.8028C39.3747 16.8203 38.2188 17.9763 38.2188 19.4043C38.2188 20.8323 39.3747 21.9883 40.8028 21.9883Z" fill="#CDA0FF"/>
  <path d="M45.834 16.9561H46.99C48.418 16.9561 49.574 15.8001 49.574 14.3721C49.574 12.9441 48.418 11.7881 46.99 11.7881H45.834C44.406 11.7881 43.25 12.9441 43.25 14.3721C43.25 15.8001 44.406 16.9561 45.834 16.9561Z" fill="#CDA0FF"/>
  <path d="M15.6426 89.8521H16.7986C18.2266 89.8521 19.3826 91.0081 19.3826 92.4361C19.3826 93.864 18.2266 95.0201 16.7986 95.0201H15.6426C14.2146 95.0201 13.0586 93.864 13.0586 92.4361C13.0586 91.0081 14.2146 89.8521 15.6426 89.8521Z" fill="#CDA0FF"/>
  <path d="M20.6738 94.8843H21.8298C23.2578 94.8843 24.4138 96.0403 24.4138 97.4683C24.4138 98.8963 23.2578 100.052 21.8298 100.052H20.6738C19.2458 100.052 18.0898 98.8963 18.0898 97.4683C18.0898 96.0403 19.2458 94.8843 20.6738 94.8843Z" fill="#CDA0FF"/>
  <path d="M25.7051 99.916H26.8611C28.2891 99.916 29.4451 101.072 29.4451 102.5C29.4451 103.928 28.2891 105.084 26.8611 105.084H25.7051C24.2771 105.084 23.1211 103.928 23.1211 102.5C23.1211 101.072 24.2771 99.916 25.7051 99.916Z" fill="#CDA0FF"/>
  <path d="M30.7363 104.948H31.8923C33.3203 104.948 34.4763 106.104 34.4763 107.532C34.4763 108.96 33.3203 110.116 31.8923 110.116H30.7363C29.3083 110.116 28.1523 108.96 28.1523 107.532C28.1523 106.104 29.3083 104.948 30.7363 104.948Z" fill="#CDA0FF"/>
  <path d="M35.7715 109.98H36.9275C38.3555 109.98 39.5115 111.136 39.5115 112.564C39.5115 113.992 38.3555 115.148 36.9275 115.148H35.7715C34.3435 115.148 33.1875 113.992 33.1875 112.564C33.1875 111.136 34.3435 109.98 35.7715 109.98Z" fill="#CDA0FF"/>
  <path d="M40.8028 115.012H41.9588C43.3868 115.012 44.5428 116.168 44.5428 117.596C44.5428 119.024 43.3868 120.18 41.9588 120.18H40.8028C39.3747 120.18 38.2188 119.024 38.2188 117.596C38.2188 116.168 39.3747 115.012 40.8028 115.012Z" fill="#CDA0FF"/>
  <path d="M45.834 120.044H46.99C48.418 120.044 49.574 121.2 49.574 122.628C49.574 124.056 48.418 125.212 46.99 125.212H45.834C44.406 125.212 43.25 124.056 43.25 122.628C43.25 121.2 44.406 120.044 45.834 120.044Z" fill="#CDA0FF"/>
  <path d="M120.361 47.148H119.205C117.777 47.148 116.621 45.992 116.621 44.564C116.621 43.136 117.777 41.98 119.205 41.98H120.361C121.789 41.98 122.945 43.136 122.945 44.564C122.945 45.992 121.789 47.148 120.361 47.148Z" fill="#CDA0FF"/>
  <path d="M115.33 42.1162H114.174C112.746 42.1162 111.59 40.9602 111.59 39.5322C111.59 38.1042 112.746 36.9482 114.174 36.9482H115.33C116.758 36.9482 117.914 38.1042 117.914 39.5322C117.914 40.9602 116.758 42.1162 115.33 42.1162Z" fill="#CDA0FF"/>
  <path d="M110.299 37.084H109.143C107.715 37.084 106.559 35.928 106.559 34.5C106.559 33.072 107.715 31.916 109.143 31.916H110.299C111.727 31.916 112.883 33.072 112.883 34.5C112.883 35.928 111.727 37.084 110.299 37.084Z" fill="#CDA0FF"/>
  <path d="M105.267 32.0523H104.111C102.683 32.0523 101.527 30.8963 101.527 29.4683C101.527 28.0403 102.683 26.8843 104.111 26.8843H105.267C106.695 26.8843 107.851 28.0403 107.851 29.4683C107.851 30.8963 106.695 32.0523 105.267 32.0523Z" fill="#CDA0FF"/>
  <path d="M100.232 27.0201H99.0762C97.6482 27.0201 96.4922 25.8641 96.4922 24.4361C96.4922 23.0081 97.6482 21.8521 99.0762 21.8521H100.232C101.66 21.8521 102.816 23.0081 102.816 24.4361C102.816 25.8641 101.66 27.0201 100.232 27.0201Z" fill="#CDA0FF"/>
  <path d="M95.2009 21.9883H94.0449C92.6169 21.9883 91.4609 20.8323 91.4609 19.4043C91.4609 17.9763 92.6169 16.8203 94.0449 16.8203H95.2009C96.6289 16.8203 97.7849 17.9763 97.7849 19.4043C97.7849 20.8323 96.6289 21.9883 95.2009 21.9883Z" fill="#CDA0FF"/>
  <path d="M90.1697 16.9561H89.0137C87.5857 16.9561 86.4297 15.8001 86.4297 14.3721C86.4297 12.9441 87.5857 11.7881 89.0137 11.7881H90.1697C91.5977 11.7881 92.7537 12.9441 92.7537 14.3721C92.7537 15.8001 91.5977 16.9561 90.1697 16.9561Z" fill="#CDA0FF"/>
  <path d="M120.361 89.8521H119.205C117.777 89.8521 116.621 91.0081 116.621 92.4361C116.621 93.864 117.777 95.0201 119.205 95.0201H120.361C121.789 95.0201 122.945 93.864 122.945 92.4361C122.945 91.0081 121.789 89.8521 120.361 89.8521Z" fill="#CDA0FF"/>
  <path d="M115.33 94.8843H114.174C112.746 94.8843 111.59 96.0403 111.59 97.4683C111.59 98.8963 112.746 100.052 114.174 100.052H115.33C116.758 100.052 117.914 98.8963 117.914 97.4683C117.914 96.0403 116.758 94.8843 115.33 94.8843Z" fill="#CDA0FF"/>
  <path d="M110.299 99.916H109.143C107.715 99.916 106.559 101.072 106.559 102.5C106.559 103.928 107.715 105.084 109.143 105.084H110.299C111.727 105.084 112.883 103.928 112.883 102.5C112.883 101.072 111.727 99.916 110.299 99.916Z" fill="#CDA0FF"/>
  <path d="M105.267 104.948H104.111C102.683 104.948 101.527 106.104 101.527 107.532C101.527 108.96 102.683 110.116 104.111 110.116H105.267C106.695 110.116 107.851 108.96 107.851 107.532C107.851 106.104 106.695 104.948 105.267 104.948Z" fill="#CDA0FF"/>
  <path d="M100.232 109.98H99.0762C97.6482 109.98 96.4922 111.136 96.4922 112.564C96.4922 113.992 97.6482 115.148 99.0762 115.148H100.232C101.66 115.148 102.816 113.992 102.816 112.564C102.816 111.136 101.66 109.98 100.232 109.98Z" fill="#CDA0FF"/>
  <path d="M95.2009 115.012H94.0449C92.6169 115.012 91.4609 116.168 91.4609 117.596C91.4609 119.024 92.6169 120.18 94.0449 120.18H95.2009C96.6289 120.18 97.7849 119.024 97.7849 117.596C97.7849 116.168 96.6289 115.012 95.2009 115.012Z" fill="#CDA0FF"/>
  <path d="M90.1697 120.044H89.0137C87.5857 120.044 86.4297 121.2 86.4297 122.628C86.4297 124.056 87.5857 125.212 89.0137 125.212H90.1697C91.5977 125.212 92.7537 124.056 92.7537 122.628C92.7537 121.2 91.5977 120.044 90.1697 120.044Z" fill="#CDA0FF"/>
  <path d="M17.5459 78.0881C17.5459 78.2921 17.6139 78.3601 17.7499 78.3601C17.8179 78.4281 18.1579 78.5641 18.3619 78.7001C18.9059 79.1761 19.2459 79.7881 19.2459 80.6041V80.6721C19.2459 82.1001 18.0899 83.2561 16.6619 83.2561H15.5059C14.0779 83.2561 12.9219 82.1001 12.9219 80.6721C12.9219 79.9241 13.2619 79.2441 13.8059 78.7681C14.0099 78.5641 14.3499 78.4281 14.4179 78.4281C14.4859 78.3601 14.6219 78.2921 14.6219 78.2241C14.6219 78.1561 14.6219 78.1561 14.6219 78.1561V78.0881C14.6219 78.0881 14.6219 78.0881 14.6219 78.0201C14.6219 77.8841 14.5539 77.8161 14.4179 77.8161C14.3499 77.7481 14.0099 77.6121 13.8059 77.4761C13.2619 77.0001 12.9219 76.3201 12.9219 75.5721C12.9219 74.8241 13.2619 74.1441 13.8059 73.6681C14.0099 73.4641 14.3499 73.3281 14.4179 73.3281C14.4859 73.2601 14.6219 73.1921 14.6219 73.1241C14.6219 73.0561 14.6219 73.0561 14.6219 73.0561C14.6219 73.0561 14.6219 73.0561 14.6219 72.9881C14.6219 72.8521 14.5539 72.7841 14.4179 72.7841C14.3499 72.7161 14.0099 72.5801 13.8059 72.4441C13.2619 71.9681 12.9219 71.2881 12.9219 70.5401C12.9219 69.7921 13.2619 69.1121 13.8059 68.6361C14.0099 68.4321 14.3499 68.2961 14.4179 68.2961C14.4859 68.2281 14.6219 68.1601 14.6219 68.0921C14.6219 68.0241 14.6219 68.0241 14.6219 68.0241V67.9561C14.6219 67.9561 14.6219 67.9561 14.6219 67.8881C14.6219 67.7521 14.5539 67.6841 14.4179 67.6841C14.3499 67.6161 14.0099 67.4801 13.8059 67.3441C13.2619 66.8681 12.9219 66.1881 12.9219 65.4401C12.9219 64.6921 13.2619 64.0121 13.8059 63.5361C14.0099 63.3321 14.3499 63.1961 14.4179 63.1961C14.4859 63.1281 14.6219 63.0601 14.6219 62.9921C14.6219 62.9241 14.6219 62.9241 14.6219 62.9241C14.6219 62.9241 14.6219 62.9241 14.6219 62.8561C14.6219 62.7201 14.5539 62.6521 14.4179 62.6521C14.3499 62.5841 14.0099 62.4481 13.8059 62.3121C13.2619 61.8361 12.9219 61.1561 12.9219 60.4081C12.9219 59.6601 13.2619 58.9801 13.8059 58.5041C14.0099 58.3001 14.3499 58.1641 14.4179 58.1641C14.4859 58.0961 14.6219 58.0281 14.6219 57.9601C14.6219 57.8921 14.6219 57.8921 14.6219 57.8241C14.6219 57.6881 14.5539 57.6201 14.4179 57.6201C14.3499 57.5521 14.0099 57.4161 13.8059 57.2801C13.2619 56.8041 12.9219 56.1921 12.9219 55.3761V55.3081C12.9219 53.8801 14.0779 52.7241 15.5059 52.7241H16.6619C18.0899 52.7241 19.2459 53.8801 19.2459 55.3081C19.2459 56.0561 18.9059 56.7361 18.3619 57.2121C18.1579 57.4161 17.8179 57.5521 17.7499 57.5521C17.6819 57.6201 17.5459 57.6881 17.5459 57.7561C17.5459 57.8241 17.5459 57.8241 17.5459 57.8921C17.5459 58.0281 17.6139 58.0961 17.7499 58.0961C17.8179 58.1641 18.1579 58.3001 18.3619 58.4361C18.9059 58.9121 19.2459 59.5921 19.2459 60.3401C19.2459 61.0881 18.9059 61.7681 18.3619 62.2441C18.1579 62.4481 17.8179 62.5841 17.7499 62.5841C17.6819 62.6521 17.5459 62.7201 17.5459 62.7881C17.5459 62.8561 17.5459 62.8561 17.5459 62.8561C17.5459 62.8561 17.5459 62.8561 17.5459 62.9241C17.5459 63.0601 17.6139 63.1281 17.7499 63.1281C17.8179 63.1961 18.1579 63.3321 18.3619 63.4681C18.9059 63.9441 19.2459 64.6241 19.2459 65.3721C19.2459 66.1201 18.9059 66.8001 18.3619 67.2761C18.1579 67.4801 17.8179 67.6161 17.7499 67.6161C17.6819 67.6841 17.5459 67.7521 17.5459 67.8201C17.5459 67.8881 17.5459 67.8881 17.5459 67.8881V67.9561C17.5459 67.9561 17.5459 67.9561 17.5459 68.0241C17.5459 68.1601 17.6139 68.2281 17.7499 68.2281C17.8179 68.2961 18.1579 68.4321 18.3619 68.5681C18.9059 69.0441 19.2459 69.7241 19.2459 70.4721C19.2459 71.2201 18.9059 71.9001 18.3619 72.3761C18.1579 72.5801 17.8179 72.7161 17.7499 72.7161C17.6819 72.7841 17.5459 72.8521 17.5459 72.9201C17.5459 72.9881 17.5459 72.9881 17.5459 72.9881C17.5459 72.9881 17.5459 72.9881 17.5459 73.0561C17.5459 73.1921 17.6139 73.2601 17.7499 73.2601C17.8179 73.3281 18.1579 73.4641 18.3619 73.6001C18.9059 74.0761 19.2459 74.7561 19.2459 75.5041C19.2459 76.2521 18.9059 76.9321 18.3619 77.4081C18.1579 77.6121 17.8179 77.7481 17.7499 77.7481C17.6819 77.8161 17.5459 77.8841 17.5459 77.9521C17.5459 78.0201 17.5459 78.0201 17.5459 78.0881Z" fill="#CDA0FF"/>
  <path d="M118.458 79.72C118.458 79.924 118.39 79.992 118.254 79.992C118.186 80.06 117.846 80.196 117.642 80.332C117.098 80.808 116.758 81.42 116.758 82.236V82.304C116.758 83.732 117.914 84.888 119.342 84.888H120.498C121.926 84.888 123.082 83.732 123.082 82.304C123.082 81.556 122.742 80.876 122.198 80.4C121.994 80.196 121.654 80.06 121.586 80.06C121.518 79.992 121.382 79.924 121.382 79.856C121.382 79.788 121.382 79.788 121.382 79.788V79.72C121.382 79.72 121.382 79.72 121.382 79.652C121.382 79.516 121.45 79.448 121.586 79.448C121.654 79.38 121.994 79.244 122.198 79.108C122.742 78.632 123.082 77.952 123.082 77.204C123.082 76.456 122.742 75.776 122.198 75.3C121.994 75.096 121.654 74.96 121.586 74.96C121.518 74.892 121.382 74.824 121.382 74.756C121.382 74.688 121.382 74.688 121.382 74.688C121.382 74.688 121.382 74.688 121.382 74.62C121.382 74.484 121.45 74.416 121.586 74.416C121.654 74.348 121.994 74.212 122.198 74.076C122.742 73.6 123.082 72.92 123.082 72.172C123.082 71.424 122.742 70.744 122.198 70.268C121.994 70.064 121.654 69.928 121.586 69.928C121.518 69.86 121.382 69.792 121.382 69.724C121.382 69.656 121.382 69.656 121.382 69.656V69.588C121.382 69.588 121.382 69.588 121.382 69.52C121.382 69.384 121.45 69.316 121.586 69.316C121.654 69.248 121.994 69.112 122.198 68.976C122.742 68.5 123.082 67.82 123.082 67.072C123.082 66.324 122.742 65.644 122.198 65.168C121.994 64.964 121.654 64.828 121.586 64.828C121.518 64.76 121.382 64.692 121.382 64.624C121.382 64.556 121.382 64.556 121.382 64.556C121.382 64.556 121.382 64.556 121.382 64.488C121.382 64.352 121.45 64.284 121.586 64.284C121.654 64.216 121.994 64.08 122.198 63.944C122.742 63.468 123.082 62.788 123.082 62.04C123.082 61.292 122.742 60.612 122.198 60.136C121.994 59.932 121.654 59.796 121.586 59.796C121.518 59.728 121.382 59.66 121.382 59.592C121.382 59.524 121.382 59.524 121.382 59.456C121.382 59.32 121.45 59.252 121.586 59.252C121.654 59.184 121.994 59.048 122.198 58.912C122.742 58.436 123.082 57.824 123.082 57.008V56.94C123.082 55.512 121.926 54.356 120.498 54.356H119.342C117.914 54.356 116.758 55.512 116.758 56.94C116.758 57.688 117.098 58.368 117.642 58.844C117.846 59.048 118.186 59.184 118.254 59.184C118.322 59.252 118.458 59.32 118.458 59.388C118.458 59.456 118.458 59.456 118.458 59.524C118.458 59.66 118.39 59.728 118.254 59.728C118.186 59.796 117.846 59.932 117.642 60.068C117.098 60.544 116.758 61.224 116.758 61.972C116.758 62.72 117.098 63.4 117.642 63.876C117.846 64.08 118.186 64.216 118.254 64.216C118.322 64.284 118.458 64.352 118.458 64.42C118.458 64.488 118.458 64.488 118.458 64.488C118.458 64.488 118.458 64.488 118.458 64.556C118.458 64.692 118.39 64.76 118.254 64.76C118.186 64.828 117.846 64.964 117.642 65.1C117.098 65.576 116.758 66.256 116.758 67.004C116.758 67.752 117.098 68.432 117.642 68.908C117.846 69.112 118.186 69.248 118.254 69.248C118.322 69.316 118.458 69.384 118.458 69.452C118.458 69.52 118.458 69.52 118.458 69.52V69.588C118.458 69.588 118.458 69.588 118.458 69.656C118.458 69.792 118.39 69.86 118.254 69.86C118.186 69.928 117.846 70.064 117.642 70.2C117.098 70.676 116.758 71.356 116.758 72.104C116.758 72.852 117.098 73.532 117.642 74.008C117.846 74.212 118.186 74.348 118.254 74.348C118.322 74.416 118.458 74.484 118.458 74.552C118.458 74.62 118.458 74.62 118.458 74.62C118.458 74.62 118.458 74.62 118.458 74.688C118.458 74.824 118.39 74.892 118.254 74.892C118.186 74.96 117.846 75.096 117.642 75.232C117.098 75.708 116.758 76.388 116.758 77.136C116.758 77.884 117.098 78.564 117.642 79.04C117.846 79.244 118.186 79.38 118.254 79.38C118.322 79.448 118.458 79.516 118.458 79.584C118.458 79.652 118.458 79.652 118.458 79.72Z" fill="#CDA0FF"/>
  <path d="M74.8002 85.9081H61.2002C60.0442 85.9081 59.1602 85.0241 59.1602 83.8681C59.1602 82.7121 60.0442 81.8281 61.2002 81.8281H74.8002C75.9562 81.8281 76.8402 82.7121 76.8402 83.8681C76.8402 85.0241 75.9562 85.9081 74.8002 85.9081Z" fill="#CDA0FF"/>
  <path d="M74.8002 107.872H61.2002C60.0442 107.872 59.1602 106.988 59.1602 105.832C59.1602 104.676 60.0442 103.792 61.2002 103.792H74.8002C75.9562 103.792 76.8402 104.676 76.8402 105.832C76.8402 106.988 75.9562 107.872 74.8002 107.872Z" fill="#CDA0FF"/>
  <path d="M56.3055 89.648C56.3055 89.444 56.2375 89.376 56.1015 89.376C56.0335 89.308 55.6935 89.172 55.4895 89.036C54.9455 88.56 54.6055 87.948 54.6055 87.132V87.064C54.6055 85.636 55.7615 84.48 57.1895 84.48H58.3455C59.7735 84.48 60.9295 85.636 60.9295 87.064C60.9295 87.812 60.5895 88.492 60.0455 88.968C59.8415 89.172 59.5015 89.308 59.4335 89.308C59.3655 89.376 59.2295 89.444 59.2295 89.512C59.2295 89.58 59.2295 89.58 59.2295 89.58C59.2295 89.58 59.2295 89.58 59.2295 89.648C59.2295 89.784 59.2975 89.852 59.4335 89.852C59.5015 89.92 59.8415 90.056 60.0455 90.192C60.5895 90.668 60.9295 91.348 60.9295 92.096C60.9295 92.844 60.5895 93.524 60.0455 94C59.8415 94.204 59.5015 94.34 59.4335 94.34C59.3655 94.408 59.2295 94.476 59.2295 94.544C59.2295 94.612 59.2295 94.612 59.2295 94.612C59.2295 94.612 59.2295 94.612 59.2295 94.68C59.2295 94.816 59.2975 94.884 59.4335 94.884C59.5015 94.952 59.8415 95.088 60.0455 95.224C60.5895 95.7 60.9295 96.38 60.9295 97.128C60.9295 97.876 60.5895 98.556 60.0455 99.032C59.8415 99.236 59.5015 99.372 59.4335 99.372C59.3655 99.44 59.2295 99.508 59.2295 99.576C59.2295 99.644 59.2295 99.644 59.2295 99.644V99.712C59.2295 99.712 59.2295 99.712 59.2295 99.78C59.2295 99.916 59.2975 99.984 59.4335 99.984C59.5015 100.052 59.8415 100.188 60.0455 100.324C60.5895 100.8 60.9295 101.412 60.9295 102.228V102.296C60.9295 103.724 59.7735 104.88 58.3455 104.88H57.1895C55.7615 104.88 54.6055 103.724 54.6055 102.296C54.6055 101.548 54.9455 100.868 55.4895 100.392C55.6935 100.188 56.0335 100.052 56.1015 100.052C56.1695 99.984 56.3055 99.916 56.3055 99.848V99.712C56.3055 99.712 56.3055 99.712 56.3055 99.644C56.3055 99.508 56.2375 99.44 56.1015 99.44C56.0335 99.372 55.6935 99.236 55.4895 99.1C54.9455 98.624 54.6055 97.944 54.6055 97.196C54.6055 96.448 54.9455 95.768 55.4895 95.292C55.6935 95.088 56.0335 94.952 56.1015 94.952C56.1695 94.884 56.3055 94.816 56.3055 94.748C56.3055 94.68 56.3055 94.68 56.3055 94.68C56.3055 94.68 56.3055 94.68 56.3055 94.612C56.3055 94.476 56.2375 94.408 56.1015 94.408C56.0335 94.34 55.6935 94.204 55.4895 94.068C54.9455 93.592 54.6055 92.912 54.6055 92.164C54.6055 91.416 54.9455 90.736 55.4895 90.26C55.6935 90.056 56.0335 89.92 56.1015 89.92C56.1695 89.852 56.3055 89.784 56.3055 89.716C56.3055 89.648 56.3055 89.648 56.3055 89.648Z" fill="#CDA0FF"/>
  <path d="M76.6375 89.648C76.6375 89.444 76.5695 89.376 76.4335 89.376C76.3655 89.308 76.0255 89.172 75.8215 89.036C75.2775 88.56 74.9375 87.948 74.9375 87.132V87.064C74.9375 85.636 76.0935 84.48 77.5215 84.48H78.6775C80.1055 84.48 81.2615 85.636 81.2615 87.064C81.2615 87.812 80.9215 88.492 80.3775 88.968C80.1735 89.172 79.8335 89.308 79.7655 89.308C79.6975 89.376 79.5615 89.444 79.5615 89.512C79.5615 89.58 79.5615 89.58 79.5615 89.58C79.5615 89.58 79.5615 89.58 79.5615 89.648C79.5615 89.784 79.6295 89.852 79.7655 89.852C79.8335 89.92 80.1735 90.056 80.3775 90.192C80.9215 90.668 81.2615 91.348 81.2615 92.096C81.2615 92.844 80.9215 93.524 80.3775 94C80.1735 94.204 79.8335 94.34 79.7655 94.34C79.6975 94.408 79.5615 94.476 79.5615 94.544C79.5615 94.612 79.5615 94.612 79.5615 94.612C79.5615 94.612 79.5615 94.612 79.5615 94.68C79.5615 94.816 79.6295 94.884 79.7655 94.884C79.8335 94.952 80.1735 95.088 80.3775 95.224C80.9215 95.7 81.2615 96.38 81.2615 97.128C81.2615 97.876 80.9215 98.556 80.3775 99.032C80.1735 99.236 79.8335 99.372 79.7655 99.372C79.6975 99.44 79.5615 99.508 79.5615 99.576C79.5615 99.644 79.5615 99.644 79.5615 99.644V99.712C79.5615 99.712 79.5615 99.712 79.5615 99.78C79.5615 99.916 79.6295 99.984 79.7655 99.984C79.8335 100.052 80.1735 100.188 80.3775 100.324C80.9215 100.8 81.2615 101.412 81.2615 102.228V102.296C81.2615 103.724 80.1055 104.88 78.6775 104.88H77.5215C76.0935 104.88 74.9375 103.724 74.9375 102.296C74.9375 101.548 75.2775 100.868 75.8215 100.392C76.0255 100.188 76.3655 100.052 76.4335 100.052C76.5015 99.984 76.6375 99.916 76.6375 99.848V99.712C76.6375 99.712 76.6375 99.712 76.6375 99.644C76.6375 99.508 76.5695 99.44 76.4335 99.44C76.3655 99.372 76.0255 99.236 75.8215 99.1C75.2775 98.624 74.9375 97.944 74.9375 97.196C74.9375 96.448 75.2775 95.768 75.8215 95.292C76.0255 95.088 76.3655 94.952 76.4335 94.952C76.5015 94.884 76.6375 94.816 76.6375 94.748C76.6375 94.68 76.6375 94.68 76.6375 94.68C76.6375 94.68 76.6375 94.68 76.6375 94.612C76.6375 94.476 76.5695 94.408 76.4335 94.408C76.3655 94.34 76.0255 94.204 75.8215 94.068C75.2775 93.592 74.9375 92.912 74.9375 92.164C74.9375 91.416 75.2775 90.736 75.8215 90.26C76.0255 90.056 76.3655 89.92 76.4335 89.92C76.5015 89.852 76.6375 89.784 76.6375 89.716C76.6375 89.648 76.6375 89.648 76.6375 89.648Z" fill="#CDA0FF"/>
  <path d="M52.2266 51.1598C52.2266 50.9558 52.1586 50.8878 52.0906 50.8878C52.0226 50.8198 51.6826 50.6838 51.4786 50.4798C50.9346 50.0038 50.6626 49.3238 50.6626 48.5758V48.5078C50.6626 47.0798 51.8186 45.9238 53.2466 45.9238H54.3346C55.7626 45.9238 56.9866 47.1478 56.9866 48.5758C56.9866 49.3238 56.6466 50.0038 56.1026 50.4798C55.8986 50.6838 55.5586 50.8198 55.4906 50.8198C55.4226 50.8878 55.2866 50.9558 55.2866 51.0238C55.2866 51.0918 55.2866 51.0918 55.2866 51.0918V51.1598C55.2866 51.1598 55.2866 51.1598 55.2866 51.2278C55.2866 51.3638 55.3546 51.4318 55.4226 51.4998C55.4906 51.5678 55.8306 51.7038 56.0346 51.9078C56.5786 52.3838 56.8506 53.0638 56.8506 53.8118C56.8506 54.5598 56.5106 55.2398 55.9666 55.7158C55.7626 55.9198 55.4226 56.0558 55.3546 56.0558C55.2866 56.1238 55.1506 56.1918 55.1506 56.2598C55.1506 56.3278 55.1506 56.3278 55.1506 56.3278V56.3958C55.1506 56.3958 55.1506 56.3958 55.1506 56.4638C55.1506 56.5998 55.2186 56.6678 55.2866 56.7358C55.3546 56.8038 55.6946 56.9398 55.8986 57.1438C56.4426 57.6198 56.7146 58.2998 56.7146 59.0478V59.1158C56.7146 60.5438 55.5586 61.6998 54.1306 61.6998H53.0426C51.6146 61.6998 50.3906 60.4758 50.3906 59.0478C50.3906 58.2998 50.7306 57.6198 51.2746 57.1438C51.4786 56.9398 51.8186 56.8038 51.8866 56.8038C51.9546 56.7358 52.0906 56.6678 52.0906 56.5998C52.0906 56.5318 52.0906 56.5318 52.0906 56.5318V56.4638C52.0906 56.4638 52.0906 56.4638 52.0906 56.3958C52.0906 56.2598 52.0226 56.1918 51.9546 56.1238C51.8866 56.0558 51.5466 55.9198 51.3426 55.7158C50.7986 55.2398 50.5266 54.5598 50.5266 53.8118C50.5266 53.0638 50.8666 52.3838 51.4106 51.9078C51.6146 51.7038 51.9546 51.5678 52.0226 51.5678C52.0906 51.4998 52.2266 51.4318 52.2266 51.3638C52.2266 51.2278 52.2266 51.2278 52.2266 51.1598Z" fill="#CDA0FF"/>
  <path d="M44.9493 51.1598C44.9493 50.9558 44.8813 50.8878 44.8133 50.8878C44.7453 50.8198 44.4053 50.6838 44.2013 50.4798C43.6573 50.0038 43.3853 49.3238 43.3853 48.5758V48.5078C43.3853 47.0798 44.5413 45.9238 45.9693 45.9238H47.0573C48.4853 45.9238 49.7093 47.1478 49.7093 48.5758C49.7093 49.3238 49.3693 50.0038 48.8253 50.4798C48.6213 50.6838 48.2813 50.8198 48.2133 50.8198C48.1453 50.8878 48.0093 50.9558 48.0093 51.0238C48.0093 51.0918 48.0093 51.0918 48.0093 51.0918V51.1598C48.0093 51.1598 48.0093 51.1598 48.0093 51.2278C48.0093 51.3638 48.0773 51.4318 48.1453 51.4998C48.2133 51.5678 48.5533 51.7038 48.7573 51.9078C49.3013 52.3838 49.5733 53.0638 49.5733 53.8118C49.5733 54.5598 49.2333 55.2398 48.6893 55.7158C48.4853 55.9198 48.1453 56.0558 48.0773 56.0558C48.0093 56.1238 47.8733 56.1918 47.8733 56.2598C47.8733 56.3278 47.8733 56.3278 47.8733 56.3278V56.3958C47.8733 56.3958 47.8733 56.3958 47.8733 56.4638C47.8733 56.5998 47.9413 56.6678 48.0093 56.7358C48.0773 56.8038 48.4173 56.9398 48.6213 57.1438C49.1653 57.6198 49.4373 58.2998 49.4373 59.0478V59.1158C49.4373 60.5438 48.2813 61.6998 46.8533 61.6998H45.7653C44.3373 61.6998 43.1133 60.4758 43.1133 59.0478C43.1133 58.2998 43.4533 57.6198 43.9973 57.1438C44.2013 56.9398 44.5413 56.8038 44.6093 56.8038C44.6773 56.7358 44.8133 56.6678 44.8133 56.5998C44.8133 56.5318 44.8133 56.5318 44.8133 56.5318V56.4638C44.8133 56.4638 44.8133 56.4638 44.8133 56.3958C44.8133 56.2598 44.7453 56.1918 44.6773 56.1238C44.6093 56.0558 44.2693 55.9198 44.0653 55.7158C43.5213 55.2398 43.2493 54.5598 43.2493 53.8118C43.2493 53.0638 43.5893 52.3838 44.1333 51.9078C44.3373 51.7038 44.6773 51.5678 44.7453 51.5678C44.8133 51.4998 44.9493 51.4318 44.9493 51.3638C44.9493 51.2278 44.9493 51.2278 44.9493 51.1598Z" fill="#CDA0FF"/>
  <path d="M81.6016 51.1598C81.6016 50.9558 81.5336 50.8878 81.4656 50.8878C81.3976 50.8198 81.0576 50.6838 80.8536 50.4798C80.3096 50.0038 80.0376 49.3238 80.0376 48.5758V48.5078C80.0376 47.0798 81.1936 45.9238 82.6216 45.9238H83.7096C85.1376 45.9238 86.3616 47.1478 86.3616 48.5758C86.3616 49.3238 86.0216 50.0038 85.4776 50.4798C85.2736 50.6838 84.9336 50.8198 84.8656 50.8198C84.7976 50.8878 84.6616 50.9558 84.6616 51.0238C84.6616 51.0918 84.6616 51.0918 84.6616 51.0918V51.1598C84.6616 51.1598 84.6616 51.1598 84.6616 51.2278C84.6616 51.3638 84.7296 51.4318 84.7976 51.4998C84.8656 51.5678 85.2056 51.7038 85.4096 51.9078C85.9536 52.3838 86.2256 53.0638 86.2256 53.8118C86.2256 54.5598 85.8856 55.2398 85.3416 55.7158C85.1376 55.9198 84.7976 56.0558 84.7296 56.0558C84.6616 56.1238 84.5256 56.1918 84.5256 56.2598C84.5256 56.3278 84.5256 56.3278 84.5256 56.3278V56.3958C84.5256 56.3958 84.5256 56.3958 84.5256 56.4638C84.5256 56.5998 84.5936 56.6678 84.6616 56.7358C84.7296 56.8038 85.0696 56.9398 85.2736 57.1438C85.8176 57.6198 86.0896 58.2998 86.0896 59.0478V59.1158C86.0896 60.5438 84.9336 61.6998 83.5056 61.6998H82.4176C80.9896 61.6998 79.7656 60.4758 79.7656 59.0478C79.7656 58.2998 80.1056 57.6198 80.6496 57.1438C80.8536 56.9398 81.1936 56.8038 81.2616 56.8038C81.3296 56.7358 81.4656 56.6678 81.4656 56.5998C81.4656 56.5318 81.4656 56.5318 81.4656 56.5318V56.4638C81.4656 56.4638 81.4656 56.4638 81.4656 56.3958C81.4656 56.2598 81.3976 56.1918 81.3296 56.1238C81.2616 56.0558 80.9216 55.9198 80.7176 55.7158C80.1736 55.2398 79.9016 54.5598 79.9016 53.8118C79.9016 53.0638 80.2416 52.3838 80.7856 51.9078C80.9896 51.7038 81.3296 51.5678 81.3976 51.5678C81.4656 51.4998 81.6016 51.4318 81.6016 51.3638C81.6016 51.2278 81.6016 51.2278 81.6016 51.1598Z" fill="#CDA0FF"/>
  <path d="M88.0626 51.1598C88.0626 50.9558 87.9946 50.8878 87.9266 50.8878C87.8586 50.8198 87.5186 50.6838 87.3146 50.4798C86.7706 50.0038 86.4986 49.3238 86.4986 48.5758V48.5078C86.4986 47.0798 87.6546 45.9238 89.0826 45.9238H90.1706C91.5986 45.9238 92.8226 47.1478 92.8226 48.5758C92.8226 49.3238 92.4826 50.0038 91.9386 50.4798C91.7346 50.6838 91.3946 50.8198 91.3266 50.8198C91.2586 50.8878 91.1226 50.9558 91.1226 51.0238C91.1226 51.0918 91.1226 51.0918 91.1226 51.0918V51.1598C91.1226 51.1598 91.1226 51.1598 91.1226 51.2278C91.1226 51.3638 91.1906 51.4318 91.2586 51.4998C91.3266 51.5678 91.6666 51.7038 91.8706 51.9078C92.4146 52.3838 92.6866 53.0638 92.6866 53.8118C92.6866 54.5598 92.3466 55.2398 91.8026 55.7158C91.5986 55.9198 91.2586 56.0558 91.1906 56.0558C91.1226 56.1238 90.9866 56.1918 90.9866 56.2598C90.9866 56.3278 90.9866 56.3278 90.9866 56.3278V56.3958C90.9866 56.3958 90.9866 56.3958 90.9866 56.4638C90.9866 56.5998 91.0546 56.6678 91.1226 56.7358C91.1906 56.8038 91.5306 56.9398 91.7346 57.1438C92.2786 57.6198 92.5506 58.2998 92.5506 59.0478V59.1158C92.5506 60.5438 91.3946 61.6998 89.9666 61.6998H88.8786C87.4506 61.6998 86.2266 60.4758 86.2266 59.0478C86.2266 58.2998 86.5666 57.6198 87.1106 57.1438C87.3146 56.9398 87.6546 56.8038 87.7226 56.8038C87.7906 56.7358 87.9266 56.6678 87.9266 56.5998C87.9266 56.5318 87.9266 56.5318 87.9266 56.5318V56.4638C87.9266 56.4638 87.9266 56.4638 87.9266 56.3958C87.9266 56.2598 87.8586 56.1918 87.7906 56.1238C87.7226 56.0558 87.3826 55.9198 87.1786 55.7158C86.6346 55.2398 86.3626 54.5598 86.3626 53.8118C86.3626 53.0638 86.7026 52.3838 87.2466 51.9078C87.4506 51.7038 87.7906 51.5678 87.8586 51.5678C87.9266 51.4998 88.0626 51.4318 88.0626 51.3638C88.0626 51.2278 88.0626 51.2278 88.0626 51.1598Z" fill="#CDA0FF"/>
  </svg>
  