<svg width="57" height="56" viewBox="0 0 57 56" fill="none" xmlns="http://www.w3.org/2000/svg">
  <path
    d="M35.0142 4.73197C35.0142 5.20797 34.6502 5.57197 34.1742 5.57197H22.5822C22.1062 5.57197 21.7422 5.20797 21.7422 4.73197C21.7422 4.25597 22.1062 3.89197 22.5822 3.89197H34.1742C34.6222 3.89197 35.0142 4.25597 35.0142 4.73197Z"
    fill="black" />
  <path
    d="M35.0142 51.268C35.0142 51.744 34.6502 52.108 34.1742 52.108H22.5822C22.1062 52.108 21.7422 51.744 21.7422 51.268C21.7422 50.792 22.1062 50.428 22.5822 50.428H34.1742C34.6222 50.428 35.0142 50.82 35.0142 51.268Z"
    fill="black" />
  <path
    d="M6.814 19.208H7.29C7.878 19.208 8.354 18.732 8.354 18.144C8.354 17.556 7.878 17.08 7.29 17.08H6.814C6.226 17.08 5.75 17.556 5.75 18.144C5.75 18.732 6.226 19.208 6.814 19.208Z"
    fill="black" />
  <path
    d="M8.88431 17.1359H9.36031C9.94831 17.1359 10.4243 16.6599 10.4243 16.0719C10.4243 15.4839 9.94831 15.0079 9.36031 15.0079H8.88431C8.29631 15.0079 7.82031 15.4839 7.82031 16.0719C7.82031 16.6599 8.29631 17.1359 8.88431 17.1359Z"
    fill="black" />
  <path
    d="M10.9624 15.0639H11.4384C12.0264 15.0639 12.5024 14.5879 12.5024 13.9999C12.5024 13.4119 12.0264 12.9359 11.4384 12.9359H10.9624C10.3744 12.9359 9.89844 13.4119 9.89844 13.9999C9.89844 14.5879 10.3744 15.0639 10.9624 15.0639Z"
    fill="black" />
  <path
    d="M13.0327 12.992H13.5088C14.0968 12.992 14.5728 12.516 14.5728 11.928C14.5728 11.34 14.0968 10.864 13.5088 10.864H13.0327C12.4447 10.864 11.9688 11.34 11.9688 11.928C11.9688 12.516 12.4447 12.992 13.0327 12.992Z"
    fill="black" />
  <path
    d="M15.1031 10.92H15.5791C16.1671 10.92 16.6431 10.444 16.6431 9.85599C16.6431 9.26799 16.1671 8.79199 15.5791 8.79199H15.1031C14.5151 8.79199 14.0391 9.26799 14.0391 9.85599C14.0391 10.444 14.5151 10.92 15.1031 10.92Z"
    fill="black" />
  <path
    d="M17.1734 8.84797H17.6494C18.2374 8.84797 18.7134 8.37197 18.7134 7.78397C18.7134 7.19597 18.2374 6.71997 17.6494 6.71997H17.1734C16.5854 6.71997 16.1094 7.19597 16.1094 7.78397C16.1094 8.37197 16.5854 8.84797 17.1734 8.84797Z"
    fill="black" />
  <path
    d="M19.2437 6.77595H19.7197C20.3077 6.77595 20.7837 6.29995 20.7837 5.71195C20.7837 5.12395 20.3077 4.64795 19.7197 4.64795H19.2437C18.6557 4.64795 18.1797 5.12395 18.1797 5.71195C18.1797 6.29995 18.6557 6.77595 19.2437 6.77595Z"
    fill="black" />
  <path
    d="M6.814 36.792H7.29C7.878 36.792 8.354 37.268 8.354 37.856C8.354 38.444 7.878 38.92 7.29 38.92H6.814C6.226 38.92 5.75 38.444 5.75 37.856C5.75 37.268 6.226 36.792 6.814 36.792Z"
    fill="black" />
  <path
    d="M8.88431 38.864H9.36031C9.94831 38.864 10.4243 39.34 10.4243 39.928C10.4243 40.516 9.94831 40.992 9.36031 40.992H8.88431C8.29631 40.992 7.82031 40.516 7.82031 39.928C7.82031 39.34 8.29631 38.864 8.88431 38.864Z"
    fill="black" />
  <path
    d="M10.9624 40.9359H11.4384C12.0264 40.9359 12.5024 41.4119 12.5024 41.9999C12.5024 42.5879 12.0264 43.0639 11.4384 43.0639H10.9624C10.3744 43.0639 9.89844 42.5879 9.89844 41.9999C9.89844 41.4119 10.3744 40.9359 10.9624 40.9359Z"
    fill="black" />
  <path
    d="M13.0327 43.0079H13.5088C14.0968 43.0079 14.5728 43.4839 14.5728 44.0719C14.5728 44.6599 14.0968 45.1359 13.5088 45.1359H13.0327C12.4447 45.1359 11.9688 44.6599 11.9688 44.0719C11.9688 43.4839 12.4447 43.0079 13.0327 43.0079Z"
    fill="black" />
  <path
    d="M15.1031 45.08H15.5791C16.1671 45.08 16.6431 45.556 16.6431 46.144C16.6431 46.732 16.1671 47.208 15.5791 47.208H15.1031C14.5151 47.208 14.0391 46.732 14.0391 46.144C14.0391 45.556 14.5151 45.08 15.1031 45.08Z"
    fill="black" />
  <path
    d="M17.1734 47.152H17.6494C18.2374 47.152 18.7134 47.628 18.7134 48.216C18.7134 48.804 18.2374 49.28 17.6494 49.28H17.1734C16.5854 49.28 16.1094 48.804 16.1094 48.216C16.1094 47.628 16.5854 47.152 17.1734 47.152Z"
    fill="black" />
  <path
    d="M19.2437 49.224H19.7197C20.3077 49.224 20.7837 49.7 20.7837 50.288C20.7837 50.876 20.3077 51.352 19.7197 51.352H19.2437C18.6557 51.352 18.1797 50.876 18.1797 50.288C18.1797 49.7 18.6557 49.224 19.2437 49.224Z"
    fill="black" />
  <path
    d="M49.9384 19.208H49.4624C48.8744 19.208 48.3984 18.732 48.3984 18.144C48.3984 17.556 48.8744 17.08 49.4624 17.08H49.9384C50.5264 17.08 51.0024 17.556 51.0024 18.144C51.0024 18.732 50.5264 19.208 49.9384 19.208Z"
    fill="black" />
  <path
    d="M47.8603 17.1359H47.3843C46.7963 17.1359 46.3203 16.6599 46.3203 16.0719C46.3203 15.4839 46.7963 15.0079 47.3843 15.0079H47.8603C48.4483 15.0079 48.9243 15.4839 48.9243 16.0719C48.9243 16.6599 48.4483 17.1359 47.8603 17.1359Z"
    fill="black" />
  <path
    d="M45.79 15.0639H45.314C44.726 15.0639 44.25 14.5879 44.25 13.9999C44.25 13.4119 44.726 12.9359 45.314 12.9359H45.79C46.378 12.9359 46.854 13.4119 46.854 13.9999C46.854 14.5879 46.378 15.0639 45.79 15.0639Z"
    fill="black" />
  <path
    d="M43.7197 12.992H43.2437C42.6557 12.992 42.1797 12.516 42.1797 11.928C42.1797 11.34 42.6557 10.864 43.2437 10.864H43.7197C44.3077 10.864 44.7837 11.34 44.7837 11.928C44.7837 12.516 44.3077 12.992 43.7197 12.992Z"
    fill="black" />
  <path
    d="M41.6494 10.92H41.1734C40.5854 10.92 40.1094 10.444 40.1094 9.85599C40.1094 9.26799 40.5854 8.79199 41.1734 8.79199H41.6494C42.2374 8.79199 42.7134 9.26799 42.7134 9.85599C42.7134 10.444 42.2374 10.92 41.6494 10.92Z"
    fill="black" />
  <path
    d="M39.5791 8.84797H39.1031C38.5151 8.84797 38.0391 8.37197 38.0391 7.78397C38.0391 7.19597 38.5151 6.71997 39.1031 6.71997H39.5791C40.1671 6.71997 40.6431 7.19597 40.6431 7.78397C40.6431 8.37197 40.1671 8.84797 39.5791 8.84797Z"
    fill="black" />
  <path
    d="M37.5009 6.77595H37.0249C36.4369 6.77595 35.9609 6.29995 35.9609 5.71195C35.9609 5.12395 36.4369 4.64795 37.0249 4.64795H37.5009C38.0889 4.64795 38.5649 5.12395 38.5649 5.71195C38.5649 6.29995 38.0889 6.77595 37.5009 6.77595Z"
    fill="black" />
  <path
    d="M49.9384 36.792H49.4624C48.8744 36.792 48.3984 37.268 48.3984 37.856C48.3984 38.444 48.8744 38.92 49.4624 38.92H49.9384C50.5264 38.92 51.0024 38.444 51.0024 37.856C51.0024 37.268 50.5264 36.792 49.9384 36.792Z"
    fill="black" />
  <path
    d="M47.8603 38.864H47.3843C46.7963 38.864 46.3203 39.34 46.3203 39.928C46.3203 40.516 46.7963 40.992 47.3843 40.992H47.8603C48.4483 40.992 48.9243 40.516 48.9243 39.928C48.9243 39.34 48.4483 38.864 47.8603 38.864Z"
    fill="black" />
  <path
    d="M45.79 40.9359H45.314C44.726 40.9359 44.25 41.4119 44.25 41.9999C44.25 42.5879 44.726 43.0639 45.314 43.0639H45.79C46.378 43.0639 46.854 42.5879 46.854 41.9999C46.854 41.4119 46.378 40.9359 45.79 40.9359Z"
    fill="black" />
  <path
    d="M43.7197 43.0079H43.2437C42.6557 43.0079 42.1797 43.4839 42.1797 44.0719C42.1797 44.6599 42.6557 45.1359 43.2437 45.1359H43.7197C44.3077 45.1359 44.7837 44.6599 44.7837 44.0719C44.7837 43.4839 44.3077 43.0079 43.7197 43.0079Z"
    fill="black" />
  <path
    d="M41.6494 45.08H41.1734C40.5854 45.08 40.1094 45.556 40.1094 46.144C40.1094 46.732 40.5854 47.208 41.1734 47.208H41.6494C42.2374 47.208 42.7134 46.732 42.7134 46.144C42.7134 45.556 42.2374 45.08 41.6494 45.08Z"
    fill="black" />
  <path
    d="M39.5791 47.152H39.1031C38.5151 47.152 38.0391 47.628 38.0391 48.216C38.0391 48.804 38.5151 49.28 39.1031 49.28H39.5791C40.1671 49.28 40.6431 48.804 40.6431 48.216C40.6431 47.628 40.1671 47.152 39.5791 47.152Z"
    fill="black" />
  <path
    d="M37.5009 49.224H37.0249C36.4369 49.224 35.9609 49.7 35.9609 50.288C35.9609 50.876 36.4369 51.352 37.0249 51.352H37.5009C38.0889 51.352 38.5649 50.876 38.5649 50.288C38.5649 49.7 38.0889 49.224 37.5009 49.224Z"
    fill="black" />
  <path
    d="M7.59931 31.9479C7.59931 32.0319 7.62731 32.0599 7.68331 32.0599C7.71131 32.0879 7.85131 32.1439 7.93531 32.1999C8.15931 32.3959 8.29931 32.6479 8.29931 32.9839V33.0119C8.29931 33.5999 7.82331 34.0759 7.23531 34.0759H6.75931C6.17131 34.0759 5.69531 33.5999 5.69531 33.0119C5.69531 32.7039 5.83531 32.4239 6.05931 32.2279C6.14331 32.1439 6.28331 32.0879 6.31131 32.0879C6.33931 32.0599 6.39531 32.0319 6.39531 32.0039C6.39531 31.9759 6.39531 31.9759 6.39531 31.9759V31.9479C6.39531 31.9479 6.39531 31.9479 6.39531 31.9199C6.39531 31.8639 6.36731 31.8359 6.31131 31.8359C6.28331 31.8079 6.14331 31.7519 6.05931 31.6959C5.83531 31.4999 5.69531 31.2199 5.69531 30.9119C5.69531 30.6039 5.83531 30.3239 6.05931 30.1279C6.14331 30.0439 6.28331 29.9879 6.31131 29.9879C6.33931 29.9599 6.39531 29.9319 6.39531 29.9039C6.39531 29.8759 6.39531 29.8759 6.39531 29.8759C6.39531 29.8759 6.39531 29.8759 6.39531 29.8479C6.39531 29.7919 6.36731 29.7639 6.31131 29.7639C6.28331 29.7359 6.14331 29.6799 6.05931 29.6239C5.83531 29.4279 5.69531 29.1479 5.69531 28.8399C5.69531 28.5319 5.83531 28.2519 6.05931 28.0559C6.14331 27.9719 6.28331 27.9159 6.31131 27.9159C6.33931 27.8879 6.39531 27.8599 6.39531 27.8319C6.39531 27.8039 6.39531 27.8039 6.39531 27.8039V27.7759C6.39531 27.7759 6.39531 27.7759 6.39531 27.7479C6.39531 27.6919 6.36731 27.6639 6.31131 27.6639C6.28331 27.6359 6.14331 27.5799 6.05931 27.5239C5.83531 27.3279 5.69531 27.0479 5.69531 26.7399C5.69531 26.4319 5.83531 26.1519 6.05931 25.9559C6.14331 25.8719 6.28331 25.8159 6.31131 25.8159C6.33931 25.7879 6.39531 25.7599 6.39531 25.7319C6.39531 25.7039 6.39531 25.7039 6.39531 25.7039C6.39531 25.7039 6.39531 25.7039 6.39531 25.6759C6.39531 25.6199 6.36731 25.5919 6.31131 25.5919C6.28331 25.5639 6.14331 25.5079 6.05931 25.4519C5.83531 25.2559 5.69531 24.9759 5.69531 24.6679C5.69531 24.3599 5.83531 24.0799 6.05931 23.8839C6.14331 23.7999 6.28331 23.7439 6.31131 23.7439C6.33931 23.7159 6.39531 23.6879 6.39531 23.6599C6.39531 23.6319 6.39531 23.6319 6.39531 23.6039C6.39531 23.5479 6.36731 23.5199 6.31131 23.5199C6.28331 23.4919 6.14331 23.4359 6.05931 23.3799C5.83531 23.1839 5.69531 22.9319 5.69531 22.5959V22.5679C5.69531 21.9799 6.17131 21.5039 6.75931 21.5039H7.23531C7.82331 21.5039 8.29931 21.9799 8.29931 22.5679C8.29931 22.8759 8.15931 23.1559 7.93531 23.3519C7.85131 23.4359 7.71131 23.4919 7.68331 23.4919C7.65531 23.5199 7.59931 23.5479 7.59931 23.5759C7.59931 23.6039 7.59931 23.6039 7.59931 23.6319C7.59931 23.6879 7.62731 23.7159 7.68331 23.7159C7.71131 23.7439 7.85131 23.7999 7.93531 23.8559C8.15931 24.0519 8.29931 24.3319 8.29931 24.6399C8.29931 24.9479 8.15931 25.2279 7.93531 25.4239C7.85131 25.5079 7.71131 25.5639 7.68331 25.5639C7.65531 25.5919 7.59931 25.6199 7.59931 25.6479C7.59931 25.6759 7.59931 25.6759 7.59931 25.6759C7.59931 25.6759 7.59931 25.6759 7.59931 25.7039C7.59931 25.7599 7.62731 25.7879 7.68331 25.7879C7.71131 25.8159 7.85131 25.8719 7.93531 25.9279C8.15931 26.1239 8.29931 26.4039 8.29931 26.7119C8.29931 27.0199 8.15931 27.2999 7.93531 27.4959C7.85131 27.5799 7.71131 27.6359 7.68331 27.6359C7.65531 27.6639 7.59931 27.6919 7.59931 27.7199C7.59931 27.7479 7.59931 27.7479 7.59931 27.7479V27.7759C7.59931 27.7759 7.59931 27.7759 7.59931 27.8039C7.59931 27.8599 7.62731 27.8879 7.68331 27.8879C7.71131 27.9159 7.85131 27.9719 7.93531 28.0279C8.15931 28.2239 8.29931 28.5039 8.29931 28.8119C8.29931 29.1199 8.15931 29.3999 7.93531 29.5959C7.85131 29.6799 7.71131 29.7359 7.68331 29.7359C7.65531 29.7639 7.59931 29.7919 7.59931 29.8199C7.59931 29.8479 7.59931 29.8479 7.59931 29.8479C7.59931 29.8479 7.59931 29.8479 7.59931 29.8759C7.59931 29.9319 7.62731 29.9599 7.68331 29.9599C7.71131 29.9879 7.85131 30.0439 7.93531 30.0999C8.15931 30.2959 8.29931 30.5759 8.29931 30.8839C8.29931 31.1919 8.15931 31.4719 7.93531 31.6679C7.85131 31.7519 7.71131 31.8079 7.68331 31.8079C7.65531 31.8359 7.59931 31.8639 7.59931 31.8919C7.59931 31.9199 7.59931 31.9199 7.59931 31.9479Z"
    fill="black" />
  <path
    d="M49.1531 32.62C49.1531 32.704 49.1251 32.732 49.0691 32.732C49.0411 32.76 48.9011 32.816 48.8171 32.872C48.5931 33.068 48.4531 33.32 48.4531 33.656V33.684C48.4531 34.272 48.9291 34.748 49.5171 34.748H49.9931C50.5811 34.748 51.0571 34.272 51.0571 33.684C51.0571 33.376 50.9171 33.096 50.6931 32.9C50.6091 32.816 50.4691 32.76 50.4411 32.76C50.4131 32.732 50.3571 32.704 50.3571 32.676C50.3571 32.648 50.3571 32.648 50.3571 32.648V32.62C50.3571 32.62 50.3571 32.62 50.3571 32.592C50.3571 32.536 50.3851 32.508 50.4411 32.508C50.4691 32.48 50.6091 32.424 50.6931 32.368C50.9171 32.172 51.0571 31.892 51.0571 31.584C51.0571 31.276 50.9171 30.996 50.6931 30.8C50.6091 30.716 50.4691 30.66 50.4411 30.66C50.4131 30.632 50.3571 30.604 50.3571 30.576C50.3571 30.548 50.3571 30.548 50.3571 30.548C50.3571 30.548 50.3571 30.548 50.3571 30.52C50.3571 30.464 50.3851 30.436 50.4411 30.436C50.4691 30.408 50.6091 30.352 50.6931 30.296C50.9171 30.1 51.0571 29.82 51.0571 29.512C51.0571 29.204 50.9171 28.924 50.6931 28.728C50.6091 28.644 50.4691 28.588 50.4411 28.588C50.4131 28.56 50.3571 28.532 50.3571 28.504C50.3571 28.476 50.3571 28.476 50.3571 28.476V28.448C50.3571 28.448 50.3571 28.448 50.3571 28.42C50.3571 28.364 50.3851 28.336 50.4411 28.336C50.4691 28.308 50.6091 28.252 50.6931 28.196C50.9171 28 51.0571 27.72 51.0571 27.412C51.0571 27.104 50.9171 26.824 50.6931 26.628C50.6091 26.544 50.4691 26.488 50.4411 26.488C50.4131 26.46 50.3571 26.432 50.3571 26.404C50.3571 26.376 50.3571 26.376 50.3571 26.376C50.3571 26.376 50.3571 26.376 50.3571 26.348C50.3571 26.292 50.3851 26.264 50.4411 26.264C50.4691 26.236 50.6091 26.18 50.6931 26.124C50.9171 25.928 51.0571 25.648 51.0571 25.34C51.0571 25.032 50.9171 24.752 50.6931 24.556C50.6091 24.472 50.4691 24.416 50.4411 24.416C50.4131 24.388 50.3571 24.36 50.3571 24.332C50.3571 24.304 50.3571 24.304 50.3571 24.276C50.3571 24.22 50.3851 24.192 50.4411 24.192C50.4691 24.164 50.6091 24.108 50.6931 24.052C50.9171 23.856 51.0571 23.604 51.0571 23.268V23.24C51.0571 22.652 50.5811 22.176 49.9931 22.176H49.5171C48.9291 22.176 48.4531 22.652 48.4531 23.24C48.4531 23.548 48.5931 23.828 48.8171 24.024C48.9011 24.108 49.0411 24.164 49.0691 24.164C49.0971 24.192 49.1531 24.22 49.1531 24.248C49.1531 24.276 49.1531 24.276 49.1531 24.304C49.1531 24.36 49.1251 24.388 49.0691 24.388C49.0411 24.416 48.9011 24.472 48.8171 24.528C48.5931 24.724 48.4531 25.004 48.4531 25.312C48.4531 25.62 48.5931 25.9 48.8171 26.096C48.9011 26.18 49.0411 26.236 49.0691 26.236C49.0971 26.264 49.1531 26.292 49.1531 26.32C49.1531 26.348 49.1531 26.348 49.1531 26.348C49.1531 26.348 49.1531 26.348 49.1531 26.376C49.1531 26.432 49.1251 26.46 49.0691 26.46C49.0411 26.488 48.9011 26.544 48.8171 26.6C48.5931 26.796 48.4531 27.076 48.4531 27.384C48.4531 27.692 48.5931 27.972 48.8171 28.168C48.9011 28.252 49.0411 28.308 49.0691 28.308C49.0971 28.336 49.1531 28.364 49.1531 28.392C49.1531 28.42 49.1531 28.42 49.1531 28.42V28.448C49.1531 28.448 49.1531 28.448 49.1531 28.476C49.1531 28.532 49.1251 28.56 49.0691 28.56C49.0411 28.588 48.9011 28.644 48.8171 28.7C48.5931 28.896 48.4531 29.176 48.4531 29.484C48.4531 29.792 48.5931 30.072 48.8171 30.268C48.9011 30.352 49.0411 30.408 49.0691 30.408C49.0971 30.436 49.1531 30.464 49.1531 30.492C49.1531 30.52 49.1531 30.52 49.1531 30.52C49.1531 30.52 49.1531 30.52 49.1531 30.548C49.1531 30.604 49.1251 30.632 49.0691 30.632C49.0411 30.66 48.9011 30.716 48.8171 30.772C48.5931 30.968 48.4531 31.248 48.4531 31.556C48.4531 31.864 48.5931 32.144 48.8171 32.34C48.9011 32.424 49.0411 32.48 49.0691 32.48C49.0971 32.508 49.1531 32.536 49.1531 32.564C49.1531 32.592 49.1531 32.592 49.1531 32.62Z"
    fill="black" />
  <path
    d="M21.7422 39.5921C21.7422 39.1161 22.1062 38.7521 22.5822 38.7521H34.1742C34.6502 38.7521 35.0142 39.1161 35.0142 39.5921C35.0142 40.0681 34.6502 40.4321 34.1742 40.4321H22.5822C22.1342 40.4321 21.7422 40.0681 21.7422 39.5921Z"
    fill="black" />
  <path
    d="M35.7119 36.624H35.2359C34.6479 36.624 34.1719 37.1 34.1719 37.688C34.1719 38.276 34.6479 38.752 35.2359 38.752H35.7119C36.2999 38.752 36.7759 38.276 36.7759 37.688C36.7759 37.1 36.2999 36.624 35.7119 36.624Z"
    fill="black" />
  <path
    d="M21.5166 36.624H21.0406C20.4526 36.624 19.9766 37.1 19.9766 37.688C19.9766 38.276 20.4526 38.752 21.0406 38.752H21.5166C22.1046 38.752 22.5806 38.276 22.5806 37.688C22.5806 37.1 22.1046 36.624 21.5166 36.624Z"
    fill="black" />
  <path
    d="M22.0203 19.264C22.0203 19.18 21.9923 19.152 21.9363 19.152C21.9083 19.124 21.7683 19.068 21.6843 19.012C21.4603 18.816 21.3203 18.564 21.3203 18.228V18.2C21.3203 17.612 21.7963 17.136 22.3843 17.136H22.8323C23.4203 17.136 23.9243 17.612 23.9243 18.228C23.9243 18.536 23.7843 18.816 23.5603 19.012C23.4763 19.096 23.3363 19.152 23.3083 19.152C23.2803 19.18 23.2243 19.208 23.2243 19.236C23.2243 19.264 23.2243 19.264 23.2243 19.264V19.292C23.2243 19.292 23.2243 19.292 23.2243 19.32C23.2243 19.376 23.2523 19.404 23.3083 19.404C23.3363 19.432 23.4763 19.488 23.5603 19.544C23.7843 19.74 23.9243 20.02 23.9243 20.328C23.9243 20.636 23.7843 20.916 23.5603 21.112C23.4763 21.196 23.3363 21.252 23.3083 21.252C23.2803 21.28 23.2243 21.308 23.2243 21.336C23.2243 21.364 23.2243 21.364 23.2243 21.364V21.392C23.2243 21.392 23.2243 21.392 23.2243 21.42C23.2243 21.476 23.2523 21.504 23.3083 21.504C23.3363 21.532 23.4763 21.588 23.5603 21.644C23.7843 21.84 23.9243 22.12 23.9243 22.428C23.9243 22.736 23.7843 23.016 23.5603 23.212C23.4763 23.296 23.3363 23.352 23.3083 23.352C23.2803 23.38 23.2243 23.408 23.2243 23.436C23.2243 23.464 23.2243 23.464 23.2243 23.464C23.2243 23.464 23.2243 23.464 23.2243 23.492C23.2243 23.548 23.2523 23.576 23.3083 23.576C23.3363 23.604 23.4763 23.66 23.5603 23.716C23.7843 23.912 23.9243 24.192 23.9243 24.5C23.9243 24.808 23.7843 25.088 23.5603 25.284C23.4763 25.368 23.3363 25.424 23.3083 25.424C23.2803 25.452 23.2243 25.48 23.2243 25.508C23.2243 25.536 23.2243 25.536 23.2243 25.564C23.2243 25.62 23.2523 25.648 23.3083 25.648C23.3363 25.676 23.4763 25.732 23.5603 25.788C23.7843 25.984 23.9243 26.236 23.9243 26.572V26.6C23.9243 27.188 23.4483 27.664 22.8603 27.664H22.4123C21.8243 27.664 21.3203 27.188 21.3203 26.572C21.3203 26.264 21.4603 25.984 21.6843 25.788C21.7683 25.704 21.9083 25.648 21.9363 25.648C21.9643 25.62 22.0203 25.592 22.0203 25.564C22.0203 25.536 22.0203 25.536 22.0203 25.508C22.0203 25.452 21.9923 25.424 21.9363 25.424C21.9083 25.396 21.7683 25.34 21.6843 25.284C21.4603 25.088 21.3203 24.808 21.3203 24.5C21.3203 24.192 21.4603 23.912 21.6843 23.716C21.7683 23.632 21.9083 23.576 21.9363 23.576C21.9643 23.548 22.0203 23.52 22.0203 23.492C22.0203 23.464 22.0203 23.464 22.0203 23.464C22.0203 23.464 22.0203 23.464 22.0203 23.436C22.0203 23.38 21.9923 23.352 21.9363 23.352C21.9083 23.324 21.7683 23.268 21.6843 23.212C21.4603 23.016 21.3203 22.736 21.3203 22.428C21.3203 22.12 21.4603 21.84 21.6843 21.644C21.7683 21.56 21.9083 21.504 21.9363 21.504C21.9643 21.476 22.0203 21.448 22.0203 21.42C22.0203 21.392 22.0203 21.392 22.0203 21.392V21.364C22.0203 21.364 22.0203 21.364 22.0203 21.336C22.0203 21.28 21.9923 21.252 21.9363 21.252C21.9083 21.224 21.7683 21.168 21.6843 21.112C21.4603 20.916 21.3203 20.636 21.3203 20.328C21.3203 20.02 21.4603 19.74 21.6843 19.544C21.7683 19.46 21.9083 19.404 21.9363 19.404C21.9643 19.376 22.0203 19.348 22.0203 19.32C22.0203 19.292 22.0203 19.264 22.0203 19.264Z"
    fill="black" />
  <path
    d="M33.4422 19.264C33.4422 19.18 33.4142 19.152 33.3582 19.152C33.3302 19.124 33.1902 19.068 33.1062 19.012C32.8822 18.816 32.7422 18.564 32.7422 18.228V18.2C32.7422 17.612 33.2182 17.136 33.8062 17.136H34.2542C34.8422 17.136 35.3462 17.612 35.3462 18.228C35.3462 18.536 35.2062 18.816 34.9822 19.012C34.8982 19.096 34.7582 19.152 34.7302 19.152C34.7022 19.18 34.6462 19.208 34.6462 19.236C34.6462 19.264 34.6462 19.264 34.6462 19.264V19.292C34.6462 19.292 34.6462 19.292 34.6462 19.32C34.6462 19.376 34.6742 19.404 34.7302 19.404C34.7582 19.432 34.8982 19.488 34.9822 19.544C35.2062 19.74 35.3462 20.02 35.3462 20.328C35.3462 20.636 35.2062 20.916 34.9822 21.112C34.8982 21.196 34.7582 21.252 34.7302 21.252C34.7022 21.28 34.6462 21.308 34.6462 21.336C34.6462 21.364 34.6462 21.364 34.6462 21.364V21.392C34.6462 21.392 34.6462 21.392 34.6462 21.42C34.6462 21.476 34.6742 21.504 34.7302 21.504C34.7582 21.532 34.8982 21.588 34.9822 21.644C35.2062 21.84 35.3462 22.12 35.3462 22.428C35.3462 22.736 35.2062 23.016 34.9822 23.212C34.8982 23.296 34.7582 23.352 34.7302 23.352C34.7022 23.38 34.6462 23.408 34.6462 23.436C34.6462 23.464 34.6462 23.464 34.6462 23.464C34.6462 23.464 34.6462 23.464 34.6462 23.492C34.6462 23.548 34.6742 23.576 34.7302 23.576C34.7582 23.604 34.8982 23.66 34.9822 23.716C35.2062 23.912 35.3462 24.192 35.3462 24.5C35.3462 24.808 35.2062 25.088 34.9822 25.284C34.8982 25.368 34.7582 25.424 34.7302 25.424C34.7022 25.452 34.6462 25.48 34.6462 25.508C34.6462 25.536 34.6462 25.536 34.6462 25.564C34.6462 25.62 34.6742 25.648 34.7302 25.648C34.7582 25.676 34.8982 25.732 34.9822 25.788C35.2062 25.984 35.3462 26.236 35.3462 26.572V26.6C35.3462 27.188 34.8702 27.664 34.2822 27.664H33.8342C33.2462 27.664 32.7422 27.188 32.7422 26.572C32.7422 26.264 32.8822 25.984 33.1062 25.788C33.1902 25.704 33.3302 25.648 33.3582 25.648C33.3862 25.62 33.4422 25.592 33.4422 25.564C33.4422 25.536 33.4422 25.536 33.4422 25.508C33.4422 25.452 33.4142 25.424 33.3582 25.424C33.3302 25.396 33.1902 25.34 33.1062 25.284C32.8822 25.088 32.7422 24.808 32.7422 24.5C32.7422 24.192 32.8822 23.912 33.1062 23.716C33.1902 23.632 33.3302 23.576 33.3582 23.576C33.3862 23.548 33.4422 23.52 33.4422 23.492C33.4422 23.464 33.4422 23.464 33.4422 23.464C33.4422 23.464 33.4422 23.464 33.4422 23.436C33.4422 23.38 33.4142 23.352 33.3582 23.352C33.3302 23.324 33.1902 23.268 33.1062 23.212C32.8822 23.016 32.7422 22.736 32.7422 22.428C32.7422 22.12 32.8822 21.84 33.1062 21.644C33.1902 21.56 33.3302 21.504 33.3582 21.504C33.3862 21.476 33.4422 21.448 33.4422 21.42C33.4422 21.392 33.4422 21.392 33.4422 21.392V21.364C33.4422 21.364 33.4422 21.364 33.4422 21.336C33.4422 21.28 33.4142 21.252 33.3582 21.252C33.3302 21.224 33.1902 21.168 33.1062 21.112C32.8822 20.916 32.7422 20.636 32.7422 20.328C32.7422 20.02 32.8822 19.74 33.1062 19.544C33.1902 19.46 33.3302 19.404 33.3582 19.404C33.3862 19.376 33.4422 19.348 33.4422 19.32C33.4422 19.292 33.4422 19.264 33.4422 19.264Z"
    fill="black" />
</svg>
  