<svg width="57" height="56" viewBox="0 0 57 56" fill="none" xmlns="http://www.w3.org/2000/svg">
  <path
    d="M35.5142 4.73197C35.5142 5.20797 35.1502 5.57197 34.6742 5.57197H23.0822C22.6062 5.57197 22.2422 5.20797 22.2422 4.73197C22.2422 4.25597 22.6062 3.89197 23.0822 3.89197H34.6742C35.1222 3.89197 35.5142 4.25597 35.5142 4.73197Z"
    fill="#CDA0FF" />
  <path
    d="M35.5142 51.268C35.5142 51.744 35.1502 52.108 34.6742 52.108H23.0822C22.6062 52.108 22.2422 51.744 22.2422 51.268C22.2422 50.792 22.6062 50.428 23.0822 50.428H34.6742C35.1222 50.428 35.5142 50.82 35.5142 51.268Z"
    fill="#CDA0FF" />
  <path
    d="M7.314 19.208H7.79C8.378 19.208 8.854 18.732 8.854 18.144C8.854 17.556 8.378 17.08 7.79 17.08H7.314C6.726 17.08 6.25 17.556 6.25 18.144C6.25 18.732 6.726 19.208 7.314 19.208Z"
    fill="#CDA0FF" />
  <path
    d="M9.38431 17.1359H9.86031C10.4483 17.1359 10.9243 16.6599 10.9243 16.0719C10.9243 15.4839 10.4483 15.0079 9.86031 15.0079H9.38431C8.79631 15.0079 8.32031 15.4839 8.32031 16.0719C8.32031 16.6599 8.79631 17.1359 9.38431 17.1359Z"
    fill="#CDA0FF" />
  <path
    d="M11.4624 15.0639H11.9384C12.5264 15.0639 13.0024 14.5879 13.0024 13.9999C13.0024 13.4119 12.5264 12.9359 11.9384 12.9359H11.4624C10.8744 12.9359 10.3984 13.4119 10.3984 13.9999C10.3984 14.5879 10.8744 15.0639 11.4624 15.0639Z"
    fill="#CDA0FF" />
  <path
    d="M13.5327 12.992H14.0088C14.5968 12.992 15.0728 12.516 15.0728 11.928C15.0728 11.34 14.5968 10.864 14.0088 10.864H13.5327C12.9447 10.864 12.4688 11.34 12.4688 11.928C12.4688 12.516 12.9447 12.992 13.5327 12.992Z"
    fill="#CDA0FF" />
  <path
    d="M15.6031 10.92H16.0791C16.6671 10.92 17.1431 10.444 17.1431 9.85599C17.1431 9.26799 16.6671 8.79199 16.0791 8.79199H15.6031C15.0151 8.79199 14.5391 9.26799 14.5391 9.85599C14.5391 10.444 15.0151 10.92 15.6031 10.92Z"
    fill="#CDA0FF" />
  <path
    d="M17.6734 8.84797H18.1494C18.7374 8.84797 19.2134 8.37197 19.2134 7.78397C19.2134 7.19597 18.7374 6.71997 18.1494 6.71997H17.6734C17.0854 6.71997 16.6094 7.19597 16.6094 7.78397C16.6094 8.37197 17.0854 8.84797 17.6734 8.84797Z"
    fill="#CDA0FF" />
  <path
    d="M19.7437 6.77595H20.2197C20.8077 6.77595 21.2837 6.29995 21.2837 5.71195C21.2837 5.12395 20.8077 4.64795 20.2197 4.64795H19.7437C19.1557 4.64795 18.6797 5.12395 18.6797 5.71195C18.6797 6.29995 19.1557 6.77595 19.7437 6.77595Z"
    fill="#CDA0FF" />
  <path
    d="M7.314 36.792H7.79C8.378 36.792 8.854 37.268 8.854 37.856C8.854 38.444 8.378 38.92 7.79 38.92H7.314C6.726 38.92 6.25 38.444 6.25 37.856C6.25 37.268 6.726 36.792 7.314 36.792Z"
    fill="#CDA0FF" />
  <path
    d="M9.38431 38.864H9.86031C10.4483 38.864 10.9243 39.34 10.9243 39.928C10.9243 40.516 10.4483 40.992 9.86031 40.992H9.38431C8.79631 40.992 8.32031 40.516 8.32031 39.928C8.32031 39.34 8.79631 38.864 9.38431 38.864Z"
    fill="#CDA0FF" />
  <path
    d="M11.4624 40.9359H11.9384C12.5264 40.9359 13.0024 41.4119 13.0024 41.9999C13.0024 42.5879 12.5264 43.0639 11.9384 43.0639H11.4624C10.8744 43.0639 10.3984 42.5879 10.3984 41.9999C10.3984 41.4119 10.8744 40.9359 11.4624 40.9359Z"
    fill="#CDA0FF" />
  <path
    d="M13.5327 43.0079H14.0088C14.5968 43.0079 15.0728 43.4839 15.0728 44.0719C15.0728 44.6599 14.5968 45.1359 14.0088 45.1359H13.5327C12.9447 45.1359 12.4688 44.6599 12.4688 44.0719C12.4688 43.4839 12.9447 43.0079 13.5327 43.0079Z"
    fill="#CDA0FF" />
  <path
    d="M15.6031 45.08H16.0791C16.6671 45.08 17.1431 45.556 17.1431 46.144C17.1431 46.732 16.6671 47.208 16.0791 47.208H15.6031C15.0151 47.208 14.5391 46.732 14.5391 46.144C14.5391 45.556 15.0151 45.08 15.6031 45.08Z"
    fill="#CDA0FF" />
  <path
    d="M17.6734 47.152H18.1494C18.7374 47.152 19.2134 47.628 19.2134 48.216C19.2134 48.804 18.7374 49.28 18.1494 49.28H17.6734C17.0854 49.28 16.6094 48.804 16.6094 48.216C16.6094 47.628 17.0854 47.152 17.6734 47.152Z"
    fill="#CDA0FF" />
  <path
    d="M19.7437 49.224H20.2197C20.8077 49.224 21.2837 49.7 21.2837 50.288C21.2837 50.876 20.8077 51.352 20.2197 51.352H19.7437C19.1557 51.352 18.6797 50.876 18.6797 50.288C18.6797 49.7 19.1557 49.224 19.7437 49.224Z"
    fill="#CDA0FF" />
  <path
    d="M50.4384 19.208H49.9624C49.3744 19.208 48.8984 18.732 48.8984 18.144C48.8984 17.556 49.3744 17.08 49.9624 17.08H50.4384C51.0264 17.08 51.5024 17.556 51.5024 18.144C51.5024 18.732 51.0264 19.208 50.4384 19.208Z"
    fill="#CDA0FF" />
  <path
    d="M48.3603 17.1359H47.8843C47.2963 17.1359 46.8203 16.6599 46.8203 16.0719C46.8203 15.4839 47.2963 15.0079 47.8843 15.0079H48.3603C48.9483 15.0079 49.4243 15.4839 49.4243 16.0719C49.4243 16.6599 48.9483 17.1359 48.3603 17.1359Z"
    fill="#CDA0FF" />
  <path
    d="M46.29 15.0639H45.814C45.226 15.0639 44.75 14.5879 44.75 13.9999C44.75 13.4119 45.226 12.9359 45.814 12.9359H46.29C46.878 12.9359 47.354 13.4119 47.354 13.9999C47.354 14.5879 46.878 15.0639 46.29 15.0639Z"
    fill="#CDA0FF" />
  <path
    d="M44.2197 12.992H43.7437C43.1557 12.992 42.6797 12.516 42.6797 11.928C42.6797 11.34 43.1557 10.864 43.7437 10.864H44.2197C44.8077 10.864 45.2837 11.34 45.2837 11.928C45.2837 12.516 44.8077 12.992 44.2197 12.992Z"
    fill="#CDA0FF" />
  <path
    d="M42.1494 10.92H41.6734C41.0854 10.92 40.6094 10.444 40.6094 9.85599C40.6094 9.26799 41.0854 8.79199 41.6734 8.79199H42.1494C42.7374 8.79199 43.2134 9.26799 43.2134 9.85599C43.2134 10.444 42.7374 10.92 42.1494 10.92Z"
    fill="#CDA0FF" />
  <path
    d="M40.0791 8.84797H39.6031C39.0151 8.84797 38.5391 8.37197 38.5391 7.78397C38.5391 7.19597 39.0151 6.71997 39.6031 6.71997H40.0791C40.6671 6.71997 41.1431 7.19597 41.1431 7.78397C41.1431 8.37197 40.6671 8.84797 40.0791 8.84797Z"
    fill="#CDA0FF" />
  <path
    d="M38.0009 6.77595H37.5249C36.9369 6.77595 36.4609 6.29995 36.4609 5.71195C36.4609 5.12395 36.9369 4.64795 37.5249 4.64795H38.0009C38.5889 4.64795 39.0649 5.12395 39.0649 5.71195C39.0649 6.29995 38.5889 6.77595 38.0009 6.77595Z"
    fill="#CDA0FF" />
  <path
    d="M50.4384 36.792H49.9624C49.3744 36.792 48.8984 37.268 48.8984 37.856C48.8984 38.444 49.3744 38.92 49.9624 38.92H50.4384C51.0264 38.92 51.5024 38.444 51.5024 37.856C51.5024 37.268 51.0264 36.792 50.4384 36.792Z"
    fill="#CDA0FF" />
  <path
    d="M48.3603 38.864H47.8843C47.2963 38.864 46.8203 39.34 46.8203 39.928C46.8203 40.516 47.2963 40.992 47.8843 40.992H48.3603C48.9483 40.992 49.4243 40.516 49.4243 39.928C49.4243 39.34 48.9483 38.864 48.3603 38.864Z"
    fill="#CDA0FF" />
  <path
    d="M46.29 40.9359H45.814C45.226 40.9359 44.75 41.4119 44.75 41.9999C44.75 42.5879 45.226 43.0639 45.814 43.0639H46.29C46.878 43.0639 47.354 42.5879 47.354 41.9999C47.354 41.4119 46.878 40.9359 46.29 40.9359Z"
    fill="#CDA0FF" />
  <path
    d="M44.2197 43.0079H43.7437C43.1557 43.0079 42.6797 43.4839 42.6797 44.0719C42.6797 44.6599 43.1557 45.1359 43.7437 45.1359H44.2197C44.8077 45.1359 45.2837 44.6599 45.2837 44.0719C45.2837 43.4839 44.8077 43.0079 44.2197 43.0079Z"
    fill="#CDA0FF" />
  <path
    d="M42.1494 45.08H41.6734C41.0854 45.08 40.6094 45.556 40.6094 46.144C40.6094 46.732 41.0854 47.208 41.6734 47.208H42.1494C42.7374 47.208 43.2134 46.732 43.2134 46.144C43.2134 45.556 42.7374 45.08 42.1494 45.08Z"
    fill="#CDA0FF" />
  <path
    d="M40.0791 47.152H39.6031C39.0151 47.152 38.5391 47.628 38.5391 48.216C38.5391 48.804 39.0151 49.28 39.6031 49.28H40.0791C40.6671 49.28 41.1431 48.804 41.1431 48.216C41.1431 47.628 40.6671 47.152 40.0791 47.152Z"
    fill="#CDA0FF" />
  <path
    d="M38.0009 49.224H37.5249C36.9369 49.224 36.4609 49.7 36.4609 50.288C36.4609 50.876 36.9369 51.352 37.5249 51.352H38.0009C38.5889 51.352 39.0649 50.876 39.0649 50.288C39.0649 49.7 38.5889 49.224 38.0009 49.224Z"
    fill="#CDA0FF" />
  <path
    d="M8.09931 31.9479C8.09931 32.0319 8.12731 32.0599 8.18331 32.0599C8.21131 32.0879 8.35131 32.1439 8.43531 32.1999C8.65931 32.3959 8.79931 32.6479 8.79931 32.9839V33.0119C8.79931 33.5999 8.32331 34.0759 7.73531 34.0759H7.25931C6.67131 34.0759 6.19531 33.5999 6.19531 33.0119C6.19531 32.7039 6.33531 32.4239 6.55931 32.2279C6.64331 32.1439 6.78331 32.0879 6.81131 32.0879C6.83931 32.0599 6.89531 32.0319 6.89531 32.0039C6.89531 31.9759 6.89531 31.9759 6.89531 31.9759V31.9479C6.89531 31.9479 6.89531 31.9479 6.89531 31.9199C6.89531 31.8639 6.86731 31.8359 6.81131 31.8359C6.78331 31.8079 6.64331 31.7519 6.55931 31.6959C6.33531 31.4999 6.19531 31.2199 6.19531 30.9119C6.19531 30.6039 6.33531 30.3239 6.55931 30.1279C6.64331 30.0439 6.78331 29.9879 6.81131 29.9879C6.83931 29.9599 6.89531 29.9319 6.89531 29.9039C6.89531 29.8759 6.89531 29.8759 6.89531 29.8759C6.89531 29.8759 6.89531 29.8759 6.89531 29.8479C6.89531 29.7919 6.86731 29.7639 6.81131 29.7639C6.78331 29.7359 6.64331 29.6799 6.55931 29.6239C6.33531 29.4279 6.19531 29.1479 6.19531 28.8399C6.19531 28.5319 6.33531 28.2519 6.55931 28.0559C6.64331 27.9719 6.78331 27.9159 6.81131 27.9159C6.83931 27.8879 6.89531 27.8599 6.89531 27.8319C6.89531 27.8039 6.89531 27.8039 6.89531 27.8039V27.7759C6.89531 27.7759 6.89531 27.7759 6.89531 27.7479C6.89531 27.6919 6.86731 27.6639 6.81131 27.6639C6.78331 27.6359 6.64331 27.5799 6.55931 27.5239C6.33531 27.3279 6.19531 27.0479 6.19531 26.7399C6.19531 26.4319 6.33531 26.1519 6.55931 25.9559C6.64331 25.8719 6.78331 25.8159 6.81131 25.8159C6.83931 25.7879 6.89531 25.7599 6.89531 25.7319C6.89531 25.7039 6.89531 25.7039 6.89531 25.7039C6.89531 25.7039 6.89531 25.7039 6.89531 25.6759C6.89531 25.6199 6.86731 25.5919 6.81131 25.5919C6.78331 25.5639 6.64331 25.5079 6.55931 25.4519C6.33531 25.2559 6.19531 24.9759 6.19531 24.6679C6.19531 24.3599 6.33531 24.0799 6.55931 23.8839C6.64331 23.7999 6.78331 23.7439 6.81131 23.7439C6.83931 23.7159 6.89531 23.6879 6.89531 23.6599C6.89531 23.6319 6.89531 23.6319 6.89531 23.6039C6.89531 23.5479 6.86731 23.5199 6.81131 23.5199C6.78331 23.4919 6.64331 23.4359 6.55931 23.3799C6.33531 23.1839 6.19531 22.9319 6.19531 22.5959V22.5679C6.19531 21.9799 6.67131 21.5039 7.25931 21.5039H7.73531C8.32331 21.5039 8.79931 21.9799 8.79931 22.5679C8.79931 22.8759 8.65931 23.1559 8.43531 23.3519C8.35131 23.4359 8.21131 23.4919 8.18331 23.4919C8.15531 23.5199 8.09931 23.5479 8.09931 23.5759C8.09931 23.6039 8.09931 23.6039 8.09931 23.6319C8.09931 23.6879 8.12731 23.7159 8.18331 23.7159C8.21131 23.7439 8.35131 23.7999 8.43531 23.8559C8.65931 24.0519 8.79931 24.3319 8.79931 24.6399C8.79931 24.9479 8.65931 25.2279 8.43531 25.4239C8.35131 25.5079 8.21131 25.5639 8.18331 25.5639C8.15531 25.5919 8.09931 25.6199 8.09931 25.6479C8.09931 25.6759 8.09931 25.6759 8.09931 25.6759C8.09931 25.6759 8.09931 25.6759 8.09931 25.7039C8.09931 25.7599 8.12731 25.7879 8.18331 25.7879C8.21131 25.8159 8.35131 25.8719 8.43531 25.9279C8.65931 26.1239 8.79931 26.4039 8.79931 26.7119C8.79931 27.0199 8.65931 27.2999 8.43531 27.4959C8.35131 27.5799 8.21131 27.6359 8.18331 27.6359C8.15531 27.6639 8.09931 27.6919 8.09931 27.7199C8.09931 27.7479 8.09931 27.7479 8.09931 27.7479V27.7759C8.09931 27.7759 8.09931 27.7759 8.09931 27.8039C8.09931 27.8599 8.12731 27.8879 8.18331 27.8879C8.21131 27.9159 8.35131 27.9719 8.43531 28.0279C8.65931 28.2239 8.79931 28.5039 8.79931 28.8119C8.79931 29.1199 8.65931 29.3999 8.43531 29.5959C8.35131 29.6799 8.21131 29.7359 8.18331 29.7359C8.15531 29.7639 8.09931 29.7919 8.09931 29.8199C8.09931 29.8479 8.09931 29.8479 8.09931 29.8479C8.09931 29.8479 8.09931 29.8479 8.09931 29.8759C8.09931 29.9319 8.12731 29.9599 8.18331 29.9599C8.21131 29.9879 8.35131 30.0439 8.43531 30.0999C8.65931 30.2959 8.79931 30.5759 8.79931 30.8839C8.79931 31.1919 8.65931 31.4719 8.43531 31.6679C8.35131 31.7519 8.21131 31.8079 8.18331 31.8079C8.15531 31.8359 8.09931 31.8639 8.09931 31.8919C8.09931 31.9199 8.09931 31.9199 8.09931 31.9479Z"
    fill="#CDA0FF" />
  <path
    d="M49.6531 32.62C49.6531 32.704 49.6251 32.732 49.5691 32.732C49.5411 32.76 49.4011 32.816 49.3171 32.872C49.0931 33.068 48.9531 33.32 48.9531 33.656V33.684C48.9531 34.272 49.4291 34.748 50.0171 34.748H50.4931C51.0811 34.748 51.5571 34.272 51.5571 33.684C51.5571 33.376 51.4171 33.096 51.1931 32.9C51.1091 32.816 50.9691 32.76 50.9411 32.76C50.9131 32.732 50.8571 32.704 50.8571 32.676C50.8571 32.648 50.8571 32.648 50.8571 32.648V32.62C50.8571 32.62 50.8571 32.62 50.8571 32.592C50.8571 32.536 50.8851 32.508 50.9411 32.508C50.9691 32.48 51.1091 32.424 51.1931 32.368C51.4171 32.172 51.5571 31.892 51.5571 31.584C51.5571 31.276 51.4171 30.996 51.1931 30.8C51.1091 30.716 50.9691 30.66 50.9411 30.66C50.9131 30.632 50.8571 30.604 50.8571 30.576C50.8571 30.548 50.8571 30.548 50.8571 30.548C50.8571 30.548 50.8571 30.548 50.8571 30.52C50.8571 30.464 50.8851 30.436 50.9411 30.436C50.9691 30.408 51.1091 30.352 51.1931 30.296C51.4171 30.1 51.5571 29.82 51.5571 29.512C51.5571 29.204 51.4171 28.924 51.1931 28.728C51.1091 28.644 50.9691 28.588 50.9411 28.588C50.9131 28.56 50.8571 28.532 50.8571 28.504C50.8571 28.476 50.8571 28.476 50.8571 28.476V28.448C50.8571 28.448 50.8571 28.448 50.8571 28.42C50.8571 28.364 50.8851 28.336 50.9411 28.336C50.9691 28.308 51.1091 28.252 51.1931 28.196C51.4171 28 51.5571 27.72 51.5571 27.412C51.5571 27.104 51.4171 26.824 51.1931 26.628C51.1091 26.544 50.9691 26.488 50.9411 26.488C50.9131 26.46 50.8571 26.432 50.8571 26.404C50.8571 26.376 50.8571 26.376 50.8571 26.376C50.8571 26.376 50.8571 26.376 50.8571 26.348C50.8571 26.292 50.8851 26.264 50.9411 26.264C50.9691 26.236 51.1091 26.18 51.1931 26.124C51.4171 25.928 51.5571 25.648 51.5571 25.34C51.5571 25.032 51.4171 24.752 51.1931 24.556C51.1091 24.472 50.9691 24.416 50.9411 24.416C50.9131 24.388 50.8571 24.36 50.8571 24.332C50.8571 24.304 50.8571 24.304 50.8571 24.276C50.8571 24.22 50.8851 24.192 50.9411 24.192C50.9691 24.164 51.1091 24.108 51.1931 24.052C51.4171 23.856 51.5571 23.604 51.5571 23.268V23.24C51.5571 22.652 51.0811 22.176 50.4931 22.176H50.0171C49.4291 22.176 48.9531 22.652 48.9531 23.24C48.9531 23.548 49.0931 23.828 49.3171 24.024C49.4011 24.108 49.5411 24.164 49.5691 24.164C49.5971 24.192 49.6531 24.22 49.6531 24.248C49.6531 24.276 49.6531 24.276 49.6531 24.304C49.6531 24.36 49.6251 24.388 49.5691 24.388C49.5411 24.416 49.4011 24.472 49.3171 24.528C49.0931 24.724 48.9531 25.004 48.9531 25.312C48.9531 25.62 49.0931 25.9 49.3171 26.096C49.4011 26.18 49.5411 26.236 49.5691 26.236C49.5971 26.264 49.6531 26.292 49.6531 26.32C49.6531 26.348 49.6531 26.348 49.6531 26.348C49.6531 26.348 49.6531 26.348 49.6531 26.376C49.6531 26.432 49.6251 26.46 49.5691 26.46C49.5411 26.488 49.4011 26.544 49.3171 26.6C49.0931 26.796 48.9531 27.076 48.9531 27.384C48.9531 27.692 49.0931 27.972 49.3171 28.168C49.4011 28.252 49.5411 28.308 49.5691 28.308C49.5971 28.336 49.6531 28.364 49.6531 28.392C49.6531 28.42 49.6531 28.42 49.6531 28.42V28.448C49.6531 28.448 49.6531 28.448 49.6531 28.476C49.6531 28.532 49.6251 28.56 49.5691 28.56C49.5411 28.588 49.4011 28.644 49.3171 28.7C49.0931 28.896 48.9531 29.176 48.9531 29.484C48.9531 29.792 49.0931 30.072 49.3171 30.268C49.4011 30.352 49.5411 30.408 49.5691 30.408C49.5971 30.436 49.6531 30.464 49.6531 30.492C49.6531 30.52 49.6531 30.52 49.6531 30.52C49.6531 30.52 49.6531 30.52 49.6531 30.548C49.6531 30.604 49.6251 30.632 49.5691 30.632C49.5411 30.66 49.4011 30.716 49.3171 30.772C49.0931 30.968 48.9531 31.248 48.9531 31.556C48.9531 31.864 49.0931 32.144 49.3171 32.34C49.4011 32.424 49.5411 32.48 49.5691 32.48C49.5971 32.508 49.6531 32.536 49.6531 32.564C49.6531 32.592 49.6531 32.592 49.6531 32.62Z"
    fill="#CDA0FF" />
  <path
    d="M35.5142 37.464C35.5142 37.94 35.1502 38.304 34.6742 38.304H23.0822C22.6062 38.304 22.2422 37.94 22.2422 37.464C22.2422 36.988 22.6062 36.624 23.0822 36.624H34.6742C35.1222 36.624 35.5142 36.988 35.5142 37.464Z"
    fill="#CDA0FF" />
  <path
    d="M21.5406 40.4321H22.0166C22.6046 40.4321 23.0806 39.9561 23.0806 39.3681C23.0806 38.7801 22.6046 38.3041 22.0166 38.3041H21.5406C20.9526 38.3041 20.4766 38.7801 20.4766 39.3681C20.4766 39.9561 20.9526 40.4321 21.5406 40.4321Z"
    fill="#CDA0FF" />
  <path
    d="M35.7359 40.4321H36.2119C36.7999 40.4321 37.2759 39.9561 37.2759 39.3681C37.2759 38.7801 36.7999 38.3041 36.2119 38.3041H35.7359C35.1479 38.3041 34.6719 38.7801 34.6719 39.3681C34.6719 39.9561 35.1479 40.4321 35.7359 40.4321Z"
    fill="#CDA0FF" />
  <path
    d="M22.5203 19.264C22.5203 19.18 22.4923 19.152 22.4363 19.152C22.4083 19.124 22.2683 19.068 22.1843 19.012C21.9603 18.816 21.8203 18.564 21.8203 18.228V18.2C21.8203 17.612 22.2963 17.136 22.8843 17.136H23.3323C23.9203 17.136 24.4243 17.612 24.4243 18.228C24.4243 18.536 24.2843 18.816 24.0603 19.012C23.9763 19.096 23.8363 19.152 23.8083 19.152C23.7803 19.18 23.7243 19.208 23.7243 19.236C23.7243 19.264 23.7243 19.264 23.7243 19.264V19.292C23.7243 19.292 23.7243 19.292 23.7243 19.32C23.7243 19.376 23.7523 19.404 23.8083 19.404C23.8363 19.432 23.9763 19.488 24.0603 19.544C24.2843 19.74 24.4243 20.02 24.4243 20.328C24.4243 20.636 24.2843 20.916 24.0603 21.112C23.9763 21.196 23.8363 21.252 23.8083 21.252C23.7803 21.28 23.7243 21.308 23.7243 21.336C23.7243 21.364 23.7243 21.364 23.7243 21.364V21.392C23.7243 21.392 23.7243 21.392 23.7243 21.42C23.7243 21.476 23.7523 21.504 23.8083 21.504C23.8363 21.532 23.9763 21.588 24.0603 21.644C24.2843 21.84 24.4243 22.12 24.4243 22.428C24.4243 22.736 24.2843 23.016 24.0603 23.212C23.9763 23.296 23.8363 23.352 23.8083 23.352C23.7803 23.38 23.7243 23.408 23.7243 23.436C23.7243 23.464 23.7243 23.464 23.7243 23.464C23.7243 23.464 23.7243 23.464 23.7243 23.492C23.7243 23.548 23.7523 23.576 23.8083 23.576C23.8363 23.604 23.9763 23.66 24.0603 23.716C24.2843 23.912 24.4243 24.192 24.4243 24.5C24.4243 24.808 24.2843 25.088 24.0603 25.284C23.9763 25.368 23.8363 25.424 23.8083 25.424C23.7803 25.452 23.7243 25.48 23.7243 25.508C23.7243 25.536 23.7243 25.536 23.7243 25.564C23.7243 25.62 23.7523 25.648 23.8083 25.648C23.8363 25.676 23.9763 25.732 24.0603 25.788C24.2843 25.984 24.4243 26.236 24.4243 26.572V26.6C24.4243 27.188 23.9483 27.664 23.3603 27.664H22.9123C22.3243 27.664 21.8203 27.188 21.8203 26.572C21.8203 26.264 21.9603 25.984 22.1843 25.788C22.2683 25.704 22.4083 25.648 22.4363 25.648C22.4643 25.62 22.5203 25.592 22.5203 25.564C22.5203 25.536 22.5203 25.536 22.5203 25.508C22.5203 25.452 22.4923 25.424 22.4363 25.424C22.4083 25.396 22.2683 25.34 22.1843 25.284C21.9603 25.088 21.8203 24.808 21.8203 24.5C21.8203 24.192 21.9603 23.912 22.1843 23.716C22.2683 23.632 22.4083 23.576 22.4363 23.576C22.4643 23.548 22.5203 23.52 22.5203 23.492C22.5203 23.464 22.5203 23.464 22.5203 23.464C22.5203 23.464 22.5203 23.464 22.5203 23.436C22.5203 23.38 22.4923 23.352 22.4363 23.352C22.4083 23.324 22.2683 23.268 22.1843 23.212C21.9603 23.016 21.8203 22.736 21.8203 22.428C21.8203 22.12 21.9603 21.84 22.1843 21.644C22.2683 21.56 22.4083 21.504 22.4363 21.504C22.4643 21.476 22.5203 21.448 22.5203 21.42C22.5203 21.392 22.5203 21.392 22.5203 21.392V21.364C22.5203 21.364 22.5203 21.364 22.5203 21.336C22.5203 21.28 22.4923 21.252 22.4363 21.252C22.4083 21.224 22.2683 21.168 22.1843 21.112C21.9603 20.916 21.8203 20.636 21.8203 20.328C21.8203 20.02 21.9603 19.74 22.1843 19.544C22.2683 19.46 22.4083 19.404 22.4363 19.404C22.4643 19.376 22.5203 19.348 22.5203 19.32C22.5203 19.292 22.5203 19.264 22.5203 19.264Z"
    fill="#CDA0FF" />
  <path
    d="M33.9422 19.264C33.9422 19.18 33.9142 19.152 33.8582 19.152C33.8302 19.124 33.6902 19.068 33.6062 19.012C33.3822 18.816 33.2422 18.564 33.2422 18.228V18.2C33.2422 17.612 33.7182 17.136 34.3062 17.136H34.7542C35.3422 17.136 35.8462 17.612 35.8462 18.228C35.8462 18.536 35.7062 18.816 35.4822 19.012C35.3982 19.096 35.2582 19.152 35.2302 19.152C35.2022 19.18 35.1462 19.208 35.1462 19.236C35.1462 19.264 35.1462 19.264 35.1462 19.264V19.292C35.1462 19.292 35.1462 19.292 35.1462 19.32C35.1462 19.376 35.1742 19.404 35.2302 19.404C35.2582 19.432 35.3982 19.488 35.4822 19.544C35.7062 19.74 35.8462 20.02 35.8462 20.328C35.8462 20.636 35.7062 20.916 35.4822 21.112C35.3982 21.196 35.2582 21.252 35.2302 21.252C35.2022 21.28 35.1462 21.308 35.1462 21.336C35.1462 21.364 35.1462 21.364 35.1462 21.364V21.392C35.1462 21.392 35.1462 21.392 35.1462 21.42C35.1462 21.476 35.1742 21.504 35.2302 21.504C35.2582 21.532 35.3982 21.588 35.4822 21.644C35.7062 21.84 35.8462 22.12 35.8462 22.428C35.8462 22.736 35.7062 23.016 35.4822 23.212C35.3982 23.296 35.2582 23.352 35.2302 23.352C35.2022 23.38 35.1462 23.408 35.1462 23.436C35.1462 23.464 35.1462 23.464 35.1462 23.464C35.1462 23.464 35.1462 23.464 35.1462 23.492C35.1462 23.548 35.1742 23.576 35.2302 23.576C35.2582 23.604 35.3982 23.66 35.4822 23.716C35.7062 23.912 35.8462 24.192 35.8462 24.5C35.8462 24.808 35.7062 25.088 35.4822 25.284C35.3982 25.368 35.2582 25.424 35.2302 25.424C35.2022 25.452 35.1462 25.48 35.1462 25.508C35.1462 25.536 35.1462 25.536 35.1462 25.564C35.1462 25.62 35.1742 25.648 35.2302 25.648C35.2582 25.676 35.3982 25.732 35.4822 25.788C35.7062 25.984 35.8462 26.236 35.8462 26.572V26.6C35.8462 27.188 35.3702 27.664 34.7822 27.664H34.3342C33.7462 27.664 33.2422 27.188 33.2422 26.572C33.2422 26.264 33.3822 25.984 33.6062 25.788C33.6902 25.704 33.8302 25.648 33.8582 25.648C33.8862 25.62 33.9422 25.592 33.9422 25.564C33.9422 25.536 33.9422 25.536 33.9422 25.508C33.9422 25.452 33.9142 25.424 33.8582 25.424C33.8302 25.396 33.6902 25.34 33.6062 25.284C33.3822 25.088 33.2422 24.808 33.2422 24.5C33.2422 24.192 33.3822 23.912 33.6062 23.716C33.6902 23.632 33.8302 23.576 33.8582 23.576C33.8862 23.548 33.9422 23.52 33.9422 23.492C33.9422 23.464 33.9422 23.464 33.9422 23.464C33.9422 23.464 33.9422 23.464 33.9422 23.436C33.9422 23.38 33.9142 23.352 33.8582 23.352C33.8302 23.324 33.6902 23.268 33.6062 23.212C33.3822 23.016 33.2422 22.736 33.2422 22.428C33.2422 22.12 33.3822 21.84 33.6062 21.644C33.6902 21.56 33.8302 21.504 33.8582 21.504C33.8862 21.476 33.9422 21.448 33.9422 21.42C33.9422 21.392 33.9422 21.392 33.9422 21.392V21.364C33.9422 21.364 33.9422 21.364 33.9422 21.336C33.9422 21.28 33.9142 21.252 33.8582 21.252C33.8302 21.224 33.6902 21.168 33.6062 21.112C33.3822 20.916 33.2422 20.636 33.2422 20.328C33.2422 20.02 33.3822 19.74 33.6062 19.544C33.6902 19.46 33.8302 19.404 33.8582 19.404C33.8862 19.376 33.9422 19.348 33.9422 19.32C33.9422 19.292 33.9422 19.264 33.9422 19.264Z"
    fill="#CDA0FF" />
</svg>
  