<svg width="57" height="56" viewBox="0 0 57 56" fill="none" xmlns="http://www.w3.org/2000/svg">
  <path
    d="M35.2642 4.73197C35.2642 5.20797 34.9002 5.57197 34.4242 5.57197H22.8322C22.3562 5.57197 21.9922 5.20797 21.9922 4.73197C21.9922 4.25597 22.3562 3.89197 22.8322 3.89197H34.4242C34.8722 3.89197 35.2642 4.25597 35.2642 4.73197Z"
    fill="#CDA0FF" />
  <path
    d="M35.2642 51.268C35.2642 51.744 34.9002 52.108 34.4242 52.108H22.8322C22.3562 52.108 21.9922 51.744 21.9922 51.268C21.9922 50.792 22.3562 50.428 22.8322 50.428H34.4242C34.8722 50.428 35.2642 50.82 35.2642 51.268Z"
    fill="#CDA0FF" />
  <path
    d="M7.064 19.208H7.54C8.128 19.208 8.604 18.732 8.604 18.144C8.604 17.556 8.128 17.08 7.54 17.08H7.064C6.476 17.08 6 17.556 6 18.144C6 18.732 6.476 19.208 7.064 19.208Z"
    fill="#CDA0FF" />
  <path
    d="M9.13431 17.1359H9.61031C10.1983 17.1359 10.6743 16.6599 10.6743 16.0719C10.6743 15.4839 10.1983 15.0079 9.61031 15.0079H9.13431C8.54631 15.0079 8.07031 15.4839 8.07031 16.0719C8.07031 16.6599 8.54631 17.1359 9.13431 17.1359Z"
    fill="#CDA0FF" />
  <path
    d="M11.2124 15.0639H11.6884C12.2764 15.0639 12.7524 14.5879 12.7524 13.9999C12.7524 13.4119 12.2764 12.9359 11.6884 12.9359H11.2124C10.6244 12.9359 10.1484 13.4119 10.1484 13.9999C10.1484 14.5879 10.6244 15.0639 11.2124 15.0639Z"
    fill="#CDA0FF" />
  <path
    d="M13.2827 12.992H13.7588C14.3468 12.992 14.8228 12.516 14.8228 11.928C14.8228 11.34 14.3468 10.864 13.7588 10.864H13.2827C12.6947 10.864 12.2188 11.34 12.2188 11.928C12.2188 12.516 12.6947 12.992 13.2827 12.992Z"
    fill="#CDA0FF" />
  <path
    d="M15.3531 10.92H15.8291C16.4171 10.92 16.8931 10.444 16.8931 9.85599C16.8931 9.26799 16.4171 8.79199 15.8291 8.79199H15.3531C14.7651 8.79199 14.2891 9.26799 14.2891 9.85599C14.2891 10.444 14.7651 10.92 15.3531 10.92Z"
    fill="#CDA0FF" />
  <path
    d="M17.4234 8.84797H17.8994C18.4874 8.84797 18.9634 8.37197 18.9634 7.78397C18.9634 7.19597 18.4874 6.71997 17.8994 6.71997H17.4234C16.8354 6.71997 16.3594 7.19597 16.3594 7.78397C16.3594 8.37197 16.8354 8.84797 17.4234 8.84797Z"
    fill="#CDA0FF" />
  <path
    d="M19.4937 6.77595H19.9697C20.5577 6.77595 21.0337 6.29995 21.0337 5.71195C21.0337 5.12395 20.5577 4.64795 19.9697 4.64795H19.4937C18.9057 4.64795 18.4297 5.12395 18.4297 5.71195C18.4297 6.29995 18.9057 6.77595 19.4937 6.77595Z"
    fill="#CDA0FF" />
  <path
    d="M7.064 36.792H7.54C8.128 36.792 8.604 37.268 8.604 37.856C8.604 38.444 8.128 38.92 7.54 38.92H7.064C6.476 38.92 6 38.444 6 37.856C6 37.268 6.476 36.792 7.064 36.792Z"
    fill="#CDA0FF" />
  <path
    d="M9.13431 38.864H9.61031C10.1983 38.864 10.6743 39.34 10.6743 39.928C10.6743 40.516 10.1983 40.992 9.61031 40.992H9.13431C8.54631 40.992 8.07031 40.516 8.07031 39.928C8.07031 39.34 8.54631 38.864 9.13431 38.864Z"
    fill="#CDA0FF" />
  <path
    d="M11.2124 40.9359H11.6884C12.2764 40.9359 12.7524 41.4119 12.7524 41.9999C12.7524 42.5879 12.2764 43.0639 11.6884 43.0639H11.2124C10.6244 43.0639 10.1484 42.5879 10.1484 41.9999C10.1484 41.4119 10.6244 40.9359 11.2124 40.9359Z"
    fill="#CDA0FF" />
  <path
    d="M13.2827 43.0079H13.7588C14.3468 43.0079 14.8228 43.4839 14.8228 44.0719C14.8228 44.6599 14.3468 45.1359 13.7588 45.1359H13.2827C12.6947 45.1359 12.2188 44.6599 12.2188 44.0719C12.2188 43.4839 12.6947 43.0079 13.2827 43.0079Z"
    fill="#CDA0FF" />
  <path
    d="M15.3531 45.08H15.8291C16.4171 45.08 16.8931 45.556 16.8931 46.144C16.8931 46.732 16.4171 47.208 15.8291 47.208H15.3531C14.7651 47.208 14.2891 46.732 14.2891 46.144C14.2891 45.556 14.7651 45.08 15.3531 45.08Z"
    fill="#CDA0FF" />
  <path
    d="M17.4234 47.152H17.8994C18.4874 47.152 18.9634 47.628 18.9634 48.216C18.9634 48.804 18.4874 49.28 17.8994 49.28H17.4234C16.8354 49.28 16.3594 48.804 16.3594 48.216C16.3594 47.628 16.8354 47.152 17.4234 47.152Z"
    fill="#CDA0FF" />
  <path
    d="M19.4937 49.224H19.9697C20.5577 49.224 21.0337 49.7 21.0337 50.288C21.0337 50.876 20.5577 51.352 19.9697 51.352H19.4937C18.9057 51.352 18.4297 50.876 18.4297 50.288C18.4297 49.7 18.9057 49.224 19.4937 49.224Z"
    fill="#CDA0FF" />
  <path
    d="M50.1884 19.208H49.7124C49.1244 19.208 48.6484 18.732 48.6484 18.144C48.6484 17.556 49.1244 17.08 49.7124 17.08H50.1884C50.7764 17.08 51.2524 17.556 51.2524 18.144C51.2524 18.732 50.7764 19.208 50.1884 19.208Z"
    fill="#CDA0FF" />
  <path
    d="M48.1103 17.1359H47.6343C47.0463 17.1359 46.5703 16.6599 46.5703 16.0719C46.5703 15.4839 47.0463 15.0079 47.6343 15.0079H48.1103C48.6983 15.0079 49.1743 15.4839 49.1743 16.0719C49.1743 16.6599 48.6983 17.1359 48.1103 17.1359Z"
    fill="#CDA0FF" />
  <path
    d="M46.04 15.0639H45.564C44.976 15.0639 44.5 14.5879 44.5 13.9999C44.5 13.4119 44.976 12.9359 45.564 12.9359H46.04C46.628 12.9359 47.104 13.4119 47.104 13.9999C47.104 14.5879 46.628 15.0639 46.04 15.0639Z"
    fill="#CDA0FF" />
  <path
    d="M43.9697 12.992H43.4937C42.9057 12.992 42.4297 12.516 42.4297 11.928C42.4297 11.34 42.9057 10.864 43.4937 10.864H43.9697C44.5577 10.864 45.0337 11.34 45.0337 11.928C45.0337 12.516 44.5577 12.992 43.9697 12.992Z"
    fill="#CDA0FF" />
  <path
    d="M41.8994 10.92H41.4234C40.8354 10.92 40.3594 10.444 40.3594 9.85599C40.3594 9.26799 40.8354 8.79199 41.4234 8.79199H41.8994C42.4874 8.79199 42.9634 9.26799 42.9634 9.85599C42.9634 10.444 42.4874 10.92 41.8994 10.92Z"
    fill="#CDA0FF" />
  <path
    d="M39.8291 8.84797H39.3531C38.7651 8.84797 38.2891 8.37197 38.2891 7.78397C38.2891 7.19597 38.7651 6.71997 39.3531 6.71997H39.8291C40.4171 6.71997 40.8931 7.19597 40.8931 7.78397C40.8931 8.37197 40.4171 8.84797 39.8291 8.84797Z"
    fill="#CDA0FF" />
  <path
    d="M37.7509 6.77595H37.2749C36.6869 6.77595 36.2109 6.29995 36.2109 5.71195C36.2109 5.12395 36.6869 4.64795 37.2749 4.64795H37.7509C38.3389 4.64795 38.8149 5.12395 38.8149 5.71195C38.8149 6.29995 38.3389 6.77595 37.7509 6.77595Z"
    fill="#CDA0FF" />
  <path
    d="M50.1884 36.792H49.7124C49.1244 36.792 48.6484 37.268 48.6484 37.856C48.6484 38.444 49.1244 38.92 49.7124 38.92H50.1884C50.7764 38.92 51.2524 38.444 51.2524 37.856C51.2524 37.268 50.7764 36.792 50.1884 36.792Z"
    fill="#CDA0FF" />
  <path
    d="M48.1103 38.864H47.6343C47.0463 38.864 46.5703 39.34 46.5703 39.928C46.5703 40.516 47.0463 40.992 47.6343 40.992H48.1103C48.6983 40.992 49.1743 40.516 49.1743 39.928C49.1743 39.34 48.6983 38.864 48.1103 38.864Z"
    fill="#CDA0FF" />
  <path
    d="M46.04 40.9359H45.564C44.976 40.9359 44.5 41.4119 44.5 41.9999C44.5 42.5879 44.976 43.0639 45.564 43.0639H46.04C46.628 43.0639 47.104 42.5879 47.104 41.9999C47.104 41.4119 46.628 40.9359 46.04 40.9359Z"
    fill="#CDA0FF" />
  <path
    d="M43.9697 43.0079H43.4937C42.9057 43.0079 42.4297 43.4839 42.4297 44.0719C42.4297 44.6599 42.9057 45.1359 43.4937 45.1359H43.9697C44.5577 45.1359 45.0337 44.6599 45.0337 44.0719C45.0337 43.4839 44.5577 43.0079 43.9697 43.0079Z"
    fill="#CDA0FF" />
  <path
    d="M41.8994 45.08H41.4234C40.8354 45.08 40.3594 45.556 40.3594 46.144C40.3594 46.732 40.8354 47.208 41.4234 47.208H41.8994C42.4874 47.208 42.9634 46.732 42.9634 46.144C42.9634 45.556 42.4874 45.08 41.8994 45.08Z"
    fill="#CDA0FF" />
  <path
    d="M39.8291 47.152H39.3531C38.7651 47.152 38.2891 47.628 38.2891 48.216C38.2891 48.804 38.7651 49.28 39.3531 49.28H39.8291C40.4171 49.28 40.8931 48.804 40.8931 48.216C40.8931 47.628 40.4171 47.152 39.8291 47.152Z"
    fill="#CDA0FF" />
  <path
    d="M37.7509 49.224H37.2749C36.6869 49.224 36.2109 49.7 36.2109 50.288C36.2109 50.876 36.6869 51.352 37.2749 51.352H37.7509C38.3389 51.352 38.8149 50.876 38.8149 50.288C38.8149 49.7 38.3389 49.224 37.7509 49.224Z"
    fill="#CDA0FF" />
  <path
    d="M7.84931 31.9479C7.84931 32.0319 7.87731 32.0599 7.93331 32.0599C7.96131 32.0879 8.10131 32.1439 8.18531 32.1999C8.40931 32.3959 8.54931 32.6479 8.54931 32.9839V33.0119C8.54931 33.5999 8.07331 34.0759 7.48531 34.0759H7.00931C6.42131 34.0759 5.94531 33.5999 5.94531 33.0119C5.94531 32.7039 6.08531 32.4239 6.30931 32.2279C6.39331 32.1439 6.53331 32.0879 6.56131 32.0879C6.58931 32.0599 6.64531 32.0319 6.64531 32.0039C6.64531 31.9759 6.64531 31.9759 6.64531 31.9759V31.9479C6.64531 31.9479 6.64531 31.9479 6.64531 31.9199C6.64531 31.8639 6.61731 31.8359 6.56131 31.8359C6.53331 31.8079 6.39331 31.7519 6.30931 31.6959C6.08531 31.4999 5.94531 31.2199 5.94531 30.9119C5.94531 30.6039 6.08531 30.3239 6.30931 30.1279C6.39331 30.0439 6.53331 29.9879 6.56131 29.9879C6.58931 29.9599 6.64531 29.9319 6.64531 29.9039C6.64531 29.8759 6.64531 29.8759 6.64531 29.8759C6.64531 29.8759 6.64531 29.8759 6.64531 29.8479C6.64531 29.7919 6.61731 29.7639 6.56131 29.7639C6.53331 29.7359 6.39331 29.6799 6.30931 29.6239C6.08531 29.4279 5.94531 29.1479 5.94531 28.8399C5.94531 28.5319 6.08531 28.2519 6.30931 28.0559C6.39331 27.9719 6.53331 27.9159 6.56131 27.9159C6.58931 27.8879 6.64531 27.8599 6.64531 27.8319C6.64531 27.8039 6.64531 27.8039 6.64531 27.8039V27.7759C6.64531 27.7759 6.64531 27.7759 6.64531 27.7479C6.64531 27.6919 6.61731 27.6639 6.56131 27.6639C6.53331 27.6359 6.39331 27.5799 6.30931 27.5239C6.08531 27.3279 5.94531 27.0479 5.94531 26.7399C5.94531 26.4319 6.08531 26.1519 6.30931 25.9559C6.39331 25.8719 6.53331 25.8159 6.56131 25.8159C6.58931 25.7879 6.64531 25.7599 6.64531 25.7319C6.64531 25.7039 6.64531 25.7039 6.64531 25.7039C6.64531 25.7039 6.64531 25.7039 6.64531 25.6759C6.64531 25.6199 6.61731 25.5919 6.56131 25.5919C6.53331 25.5639 6.39331 25.5079 6.30931 25.4519C6.08531 25.2559 5.94531 24.9759 5.94531 24.6679C5.94531 24.3599 6.08531 24.0799 6.30931 23.8839C6.39331 23.7999 6.53331 23.7439 6.56131 23.7439C6.58931 23.7159 6.64531 23.6879 6.64531 23.6599C6.64531 23.6319 6.64531 23.6319 6.64531 23.6039C6.64531 23.5479 6.61731 23.5199 6.56131 23.5199C6.53331 23.4919 6.39331 23.4359 6.30931 23.3799C6.08531 23.1839 5.94531 22.9319 5.94531 22.5959V22.5679C5.94531 21.9799 6.42131 21.5039 7.00931 21.5039H7.48531C8.07331 21.5039 8.54931 21.9799 8.54931 22.5679C8.54931 22.8759 8.40931 23.1559 8.18531 23.3519C8.10131 23.4359 7.96131 23.4919 7.93331 23.4919C7.90531 23.5199 7.84931 23.5479 7.84931 23.5759C7.84931 23.6039 7.84931 23.6039 7.84931 23.6319C7.84931 23.6879 7.87731 23.7159 7.93331 23.7159C7.96131 23.7439 8.10131 23.7999 8.18531 23.8559C8.40931 24.0519 8.54931 24.3319 8.54931 24.6399C8.54931 24.9479 8.40931 25.2279 8.18531 25.4239C8.10131 25.5079 7.96131 25.5639 7.93331 25.5639C7.90531 25.5919 7.84931 25.6199 7.84931 25.6479C7.84931 25.6759 7.84931 25.6759 7.84931 25.6759C7.84931 25.6759 7.84931 25.6759 7.84931 25.7039C7.84931 25.7599 7.87731 25.7879 7.93331 25.7879C7.96131 25.8159 8.10131 25.8719 8.18531 25.9279C8.40931 26.1239 8.54931 26.4039 8.54931 26.7119C8.54931 27.0199 8.40931 27.2999 8.18531 27.4959C8.10131 27.5799 7.96131 27.6359 7.93331 27.6359C7.90531 27.6639 7.84931 27.6919 7.84931 27.7199C7.84931 27.7479 7.84931 27.7479 7.84931 27.7479V27.7759C7.84931 27.7759 7.84931 27.7759 7.84931 27.8039C7.84931 27.8599 7.87731 27.8879 7.93331 27.8879C7.96131 27.9159 8.10131 27.9719 8.18531 28.0279C8.40931 28.2239 8.54931 28.5039 8.54931 28.8119C8.54931 29.1199 8.40931 29.3999 8.18531 29.5959C8.10131 29.6799 7.96131 29.7359 7.93331 29.7359C7.90531 29.7639 7.84931 29.7919 7.84931 29.8199C7.84931 29.8479 7.84931 29.8479 7.84931 29.8479C7.84931 29.8479 7.84931 29.8479 7.84931 29.8759C7.84931 29.9319 7.87731 29.9599 7.93331 29.9599C7.96131 29.9879 8.10131 30.0439 8.18531 30.0999C8.40931 30.2959 8.54931 30.5759 8.54931 30.8839C8.54931 31.1919 8.40931 31.4719 8.18531 31.6679C8.10131 31.7519 7.96131 31.8079 7.93331 31.8079C7.90531 31.8359 7.84931 31.8639 7.84931 31.8919C7.84931 31.9199 7.84931 31.9199 7.84931 31.9479Z"
    fill="#CDA0FF" />
  <path
    d="M49.4031 32.62C49.4031 32.704 49.3751 32.732 49.3191 32.732C49.2911 32.76 49.1511 32.816 49.0671 32.872C48.8431 33.068 48.7031 33.32 48.7031 33.656V33.684C48.7031 34.272 49.1791 34.748 49.7671 34.748H50.2431C50.8311 34.748 51.3071 34.272 51.3071 33.684C51.3071 33.376 51.1671 33.096 50.9431 32.9C50.8591 32.816 50.7191 32.76 50.6911 32.76C50.6631 32.732 50.6071 32.704 50.6071 32.676C50.6071 32.648 50.6071 32.648 50.6071 32.648V32.62C50.6071 32.62 50.6071 32.62 50.6071 32.592C50.6071 32.536 50.6351 32.508 50.6911 32.508C50.7191 32.48 50.8591 32.424 50.9431 32.368C51.1671 32.172 51.3071 31.892 51.3071 31.584C51.3071 31.276 51.1671 30.996 50.9431 30.8C50.8591 30.716 50.7191 30.66 50.6911 30.66C50.6631 30.632 50.6071 30.604 50.6071 30.576C50.6071 30.548 50.6071 30.548 50.6071 30.548C50.6071 30.548 50.6071 30.548 50.6071 30.52C50.6071 30.464 50.6351 30.436 50.6911 30.436C50.7191 30.408 50.8591 30.352 50.9431 30.296C51.1671 30.1 51.3071 29.82 51.3071 29.512C51.3071 29.204 51.1671 28.924 50.9431 28.728C50.8591 28.644 50.7191 28.588 50.6911 28.588C50.6631 28.56 50.6071 28.532 50.6071 28.504C50.6071 28.476 50.6071 28.476 50.6071 28.476V28.448C50.6071 28.448 50.6071 28.448 50.6071 28.42C50.6071 28.364 50.6351 28.336 50.6911 28.336C50.7191 28.308 50.8591 28.252 50.9431 28.196C51.1671 28 51.3071 27.72 51.3071 27.412C51.3071 27.104 51.1671 26.824 50.9431 26.628C50.8591 26.544 50.7191 26.488 50.6911 26.488C50.6631 26.46 50.6071 26.432 50.6071 26.404C50.6071 26.376 50.6071 26.376 50.6071 26.376C50.6071 26.376 50.6071 26.376 50.6071 26.348C50.6071 26.292 50.6351 26.264 50.6911 26.264C50.7191 26.236 50.8591 26.18 50.9431 26.124C51.1671 25.928 51.3071 25.648 51.3071 25.34C51.3071 25.032 51.1671 24.752 50.9431 24.556C50.8591 24.472 50.7191 24.416 50.6911 24.416C50.6631 24.388 50.6071 24.36 50.6071 24.332C50.6071 24.304 50.6071 24.304 50.6071 24.276C50.6071 24.22 50.6351 24.192 50.6911 24.192C50.7191 24.164 50.8591 24.108 50.9431 24.052C51.1671 23.856 51.3071 23.604 51.3071 23.268V23.24C51.3071 22.652 50.8311 22.176 50.2431 22.176H49.7671C49.1791 22.176 48.7031 22.652 48.7031 23.24C48.7031 23.548 48.8431 23.828 49.0671 24.024C49.1511 24.108 49.2911 24.164 49.3191 24.164C49.3471 24.192 49.4031 24.22 49.4031 24.248C49.4031 24.276 49.4031 24.276 49.4031 24.304C49.4031 24.36 49.3751 24.388 49.3191 24.388C49.2911 24.416 49.1511 24.472 49.0671 24.528C48.8431 24.724 48.7031 25.004 48.7031 25.312C48.7031 25.62 48.8431 25.9 49.0671 26.096C49.1511 26.18 49.2911 26.236 49.3191 26.236C49.3471 26.264 49.4031 26.292 49.4031 26.32C49.4031 26.348 49.4031 26.348 49.4031 26.348C49.4031 26.348 49.4031 26.348 49.4031 26.376C49.4031 26.432 49.3751 26.46 49.3191 26.46C49.2911 26.488 49.1511 26.544 49.0671 26.6C48.8431 26.796 48.7031 27.076 48.7031 27.384C48.7031 27.692 48.8431 27.972 49.0671 28.168C49.1511 28.252 49.2911 28.308 49.3191 28.308C49.3471 28.336 49.4031 28.364 49.4031 28.392C49.4031 28.42 49.4031 28.42 49.4031 28.42V28.448C49.4031 28.448 49.4031 28.448 49.4031 28.476C49.4031 28.532 49.3751 28.56 49.3191 28.56C49.2911 28.588 49.1511 28.644 49.0671 28.7C48.8431 28.896 48.7031 29.176 48.7031 29.484C48.7031 29.792 48.8431 30.072 49.0671 30.268C49.1511 30.352 49.2911 30.408 49.3191 30.408C49.3471 30.436 49.4031 30.464 49.4031 30.492C49.4031 30.52 49.4031 30.52 49.4031 30.52C49.4031 30.52 49.4031 30.52 49.4031 30.548C49.4031 30.604 49.3751 30.632 49.3191 30.632C49.2911 30.66 49.1511 30.716 49.0671 30.772C48.8431 30.968 48.7031 31.248 48.7031 31.556C48.7031 31.864 48.8431 32.144 49.0671 32.34C49.1511 32.424 49.2911 32.48 49.3191 32.48C49.3471 32.508 49.4031 32.536 49.4031 32.564C49.4031 32.592 49.4031 32.592 49.4031 32.62Z"
    fill="#CDA0FF" />
  <path
    d="M21.9922 38.752C21.9922 38.276 22.3562 37.912 22.8322 37.912H34.4242C34.9002 37.912 35.2642 38.276 35.2642 38.752C35.2642 39.228 34.9002 39.592 34.4242 39.592H22.8322C22.3842 39.592 21.9922 39.228 21.9922 38.752Z"
    fill="#CDA0FF" />
  <path
    d="M22.2703 19.264C22.2703 19.18 22.2423 19.152 22.1863 19.152C22.1583 19.124 22.0183 19.068 21.9343 19.012C21.7103 18.816 21.5703 18.564 21.5703 18.228V18.2C21.5703 17.612 22.0463 17.136 22.6343 17.136H23.0823C23.6703 17.136 24.1743 17.612 24.1743 18.228C24.1743 18.536 24.0343 18.816 23.8103 19.012C23.7263 19.096 23.5863 19.152 23.5583 19.152C23.5303 19.18 23.4743 19.208 23.4743 19.236C23.4743 19.264 23.4743 19.264 23.4743 19.264V19.292C23.4743 19.292 23.4743 19.292 23.4743 19.32C23.4743 19.376 23.5023 19.404 23.5583 19.404C23.5863 19.432 23.7263 19.488 23.8103 19.544C24.0343 19.74 24.1743 20.02 24.1743 20.328C24.1743 20.636 24.0343 20.916 23.8103 21.112C23.7263 21.196 23.5863 21.252 23.5583 21.252C23.5303 21.28 23.4743 21.308 23.4743 21.336C23.4743 21.364 23.4743 21.364 23.4743 21.364V21.392C23.4743 21.392 23.4743 21.392 23.4743 21.42C23.4743 21.476 23.5023 21.504 23.5583 21.504C23.5863 21.532 23.7263 21.588 23.8103 21.644C24.0343 21.84 24.1743 22.12 24.1743 22.428C24.1743 22.736 24.0343 23.016 23.8103 23.212C23.7263 23.296 23.5863 23.352 23.5583 23.352C23.5303 23.38 23.4743 23.408 23.4743 23.436C23.4743 23.464 23.4743 23.464 23.4743 23.464C23.4743 23.464 23.4743 23.464 23.4743 23.492C23.4743 23.548 23.5023 23.576 23.5583 23.576C23.5863 23.604 23.7263 23.66 23.8103 23.716C24.0343 23.912 24.1743 24.192 24.1743 24.5C24.1743 24.808 24.0343 25.088 23.8103 25.284C23.7263 25.368 23.5863 25.424 23.5583 25.424C23.5303 25.452 23.4743 25.48 23.4743 25.508C23.4743 25.536 23.4743 25.536 23.4743 25.564C23.4743 25.62 23.5023 25.648 23.5583 25.648C23.5863 25.676 23.7263 25.732 23.8103 25.788C24.0343 25.984 24.1743 26.236 24.1743 26.572V26.6C24.1743 27.188 23.6983 27.664 23.1103 27.664H22.6623C22.0743 27.664 21.5703 27.188 21.5703 26.572C21.5703 26.264 21.7103 25.984 21.9343 25.788C22.0183 25.704 22.1583 25.648 22.1863 25.648C22.2143 25.62 22.2703 25.592 22.2703 25.564C22.2703 25.536 22.2703 25.536 22.2703 25.508C22.2703 25.452 22.2423 25.424 22.1863 25.424C22.1583 25.396 22.0183 25.34 21.9343 25.284C21.7103 25.088 21.5703 24.808 21.5703 24.5C21.5703 24.192 21.7103 23.912 21.9343 23.716C22.0183 23.632 22.1583 23.576 22.1863 23.576C22.2143 23.548 22.2703 23.52 22.2703 23.492C22.2703 23.464 22.2703 23.464 22.2703 23.464C22.2703 23.464 22.2703 23.464 22.2703 23.436C22.2703 23.38 22.2423 23.352 22.1863 23.352C22.1583 23.324 22.0183 23.268 21.9343 23.212C21.7103 23.016 21.5703 22.736 21.5703 22.428C21.5703 22.12 21.7103 21.84 21.9343 21.644C22.0183 21.56 22.1583 21.504 22.1863 21.504C22.2143 21.476 22.2703 21.448 22.2703 21.42C22.2703 21.392 22.2703 21.392 22.2703 21.392V21.364C22.2703 21.364 22.2703 21.364 22.2703 21.336C22.2703 21.28 22.2423 21.252 22.1863 21.252C22.1583 21.224 22.0183 21.168 21.9343 21.112C21.7103 20.916 21.5703 20.636 21.5703 20.328C21.5703 20.02 21.7103 19.74 21.9343 19.544C22.0183 19.46 22.1583 19.404 22.1863 19.404C22.2143 19.376 22.2703 19.348 22.2703 19.32C22.2703 19.292 22.2703 19.264 22.2703 19.264Z"
    fill="#CDA0FF" />
  <path
    d="M33.6922 19.264C33.6922 19.18 33.6642 19.152 33.6082 19.152C33.5802 19.124 33.4402 19.068 33.3562 19.012C33.1322 18.816 32.9922 18.564 32.9922 18.228V18.2C32.9922 17.612 33.4682 17.136 34.0562 17.136H34.5042C35.0922 17.136 35.5962 17.612 35.5962 18.228C35.5962 18.536 35.4562 18.816 35.2322 19.012C35.1482 19.096 35.0082 19.152 34.9802 19.152C34.9522 19.18 34.8962 19.208 34.8962 19.236C34.8962 19.264 34.8962 19.264 34.8962 19.264V19.292C34.8962 19.292 34.8962 19.292 34.8962 19.32C34.8962 19.376 34.9242 19.404 34.9802 19.404C35.0082 19.432 35.1482 19.488 35.2322 19.544C35.4562 19.74 35.5962 20.02 35.5962 20.328C35.5962 20.636 35.4562 20.916 35.2322 21.112C35.1482 21.196 35.0082 21.252 34.9802 21.252C34.9522 21.28 34.8962 21.308 34.8962 21.336C34.8962 21.364 34.8962 21.364 34.8962 21.364V21.392C34.8962 21.392 34.8962 21.392 34.8962 21.42C34.8962 21.476 34.9242 21.504 34.9802 21.504C35.0082 21.532 35.1482 21.588 35.2322 21.644C35.4562 21.84 35.5962 22.12 35.5962 22.428C35.5962 22.736 35.4562 23.016 35.2322 23.212C35.1482 23.296 35.0082 23.352 34.9802 23.352C34.9522 23.38 34.8962 23.408 34.8962 23.436C34.8962 23.464 34.8962 23.464 34.8962 23.464C34.8962 23.464 34.8962 23.464 34.8962 23.492C34.8962 23.548 34.9242 23.576 34.9802 23.576C35.0082 23.604 35.1482 23.66 35.2322 23.716C35.4562 23.912 35.5962 24.192 35.5962 24.5C35.5962 24.808 35.4562 25.088 35.2322 25.284C35.1482 25.368 35.0082 25.424 34.9802 25.424C34.9522 25.452 34.8962 25.48 34.8962 25.508C34.8962 25.536 34.8962 25.536 34.8962 25.564C34.8962 25.62 34.9242 25.648 34.9802 25.648C35.0082 25.676 35.1482 25.732 35.2322 25.788C35.4562 25.984 35.5962 26.236 35.5962 26.572V26.6C35.5962 27.188 35.1202 27.664 34.5322 27.664H34.0842C33.4962 27.664 32.9922 27.188 32.9922 26.572C32.9922 26.264 33.1322 25.984 33.3562 25.788C33.4402 25.704 33.5802 25.648 33.6082 25.648C33.6362 25.62 33.6922 25.592 33.6922 25.564C33.6922 25.536 33.6922 25.536 33.6922 25.508C33.6922 25.452 33.6642 25.424 33.6082 25.424C33.5802 25.396 33.4402 25.34 33.3562 25.284C33.1322 25.088 32.9922 24.808 32.9922 24.5C32.9922 24.192 33.1322 23.912 33.3562 23.716C33.4402 23.632 33.5802 23.576 33.6082 23.576C33.6362 23.548 33.6922 23.52 33.6922 23.492C33.6922 23.464 33.6922 23.464 33.6922 23.464C33.6922 23.464 33.6922 23.464 33.6922 23.436C33.6922 23.38 33.6642 23.352 33.6082 23.352C33.5802 23.324 33.4402 23.268 33.3562 23.212C33.1322 23.016 32.9922 22.736 32.9922 22.428C32.9922 22.12 33.1322 21.84 33.3562 21.644C33.4402 21.56 33.5802 21.504 33.6082 21.504C33.6362 21.476 33.6922 21.448 33.6922 21.42C33.6922 21.392 33.6922 21.392 33.6922 21.392V21.364C33.6922 21.364 33.6922 21.364 33.6922 21.336C33.6922 21.28 33.6642 21.252 33.6082 21.252C33.5802 21.224 33.4402 21.168 33.3562 21.112C33.1322 20.916 32.9922 20.636 32.9922 20.328C32.9922 20.02 33.1322 19.74 33.3562 19.544C33.4402 19.46 33.5802 19.404 33.6082 19.404C33.6362 19.376 33.6922 19.348 33.6922 19.32C33.6922 19.292 33.6922 19.264 33.6922 19.264Z"
    fill="#CDA0FF" />
</svg>
  