<svg width="57" height="56" viewBox="0 0 57 56" fill="none" xmlns="http://www.w3.org/2000/svg">
  <path
    d="M34.7642 4.73197C34.7642 5.20797 34.4002 5.57197 33.9242 5.57197H22.3322C21.8562 5.57197 21.4922 5.20797 21.4922 4.73197C21.4922 4.25597 21.8562 3.89197 22.3322 3.89197H33.9242C34.3722 3.89197 34.7642 4.25597 34.7642 4.73197Z"
    fill="black" />
  <path
    d="M34.7642 51.268C34.7642 51.744 34.4002 52.108 33.9242 52.108H22.3322C21.8562 52.108 21.4922 51.744 21.4922 51.268C21.4922 50.792 21.8562 50.428 22.3322 50.428H33.9242C34.3722 50.428 34.7642 50.82 34.7642 51.268Z"
    fill="black" />
  <path
    d="M6.564 19.208H7.04C7.628 19.208 8.104 18.732 8.104 18.144C8.104 17.556 7.628 17.08 7.04 17.08H6.564C5.976 17.08 5.5 17.556 5.5 18.144C5.5 18.732 5.976 19.208 6.564 19.208Z"
    fill="black" />
  <path
    d="M8.63431 17.1359H9.11031C9.69831 17.1359 10.1743 16.6599 10.1743 16.0719C10.1743 15.4839 9.69831 15.0079 9.11031 15.0079H8.63431C8.04631 15.0079 7.57031 15.4839 7.57031 16.0719C7.57031 16.6599 8.04631 17.1359 8.63431 17.1359Z"
    fill="black" />
  <path
    d="M10.7124 15.0639H11.1884C11.7764 15.0639 12.2524 14.5879 12.2524 13.9999C12.2524 13.4119 11.7764 12.9359 11.1884 12.9359H10.7124C10.1244 12.9359 9.64844 13.4119 9.64844 13.9999C9.64844 14.5879 10.1244 15.0639 10.7124 15.0639Z"
    fill="black" />
  <path
    d="M12.7827 12.992H13.2588C13.8468 12.992 14.3228 12.516 14.3228 11.928C14.3228 11.34 13.8468 10.864 13.2588 10.864H12.7827C12.1947 10.864 11.7188 11.34 11.7188 11.928C11.7188 12.516 12.1947 12.992 12.7827 12.992Z"
    fill="black" />
  <path
    d="M14.8531 10.92H15.3291C15.9171 10.92 16.3931 10.444 16.3931 9.85599C16.3931 9.26799 15.9171 8.79199 15.3291 8.79199H14.8531C14.2651 8.79199 13.7891 9.26799 13.7891 9.85599C13.7891 10.444 14.2651 10.92 14.8531 10.92Z"
    fill="black" />
  <path
    d="M16.9234 8.84797H17.3994C17.9874 8.84797 18.4634 8.37197 18.4634 7.78397C18.4634 7.19597 17.9874 6.71997 17.3994 6.71997H16.9234C16.3354 6.71997 15.8594 7.19597 15.8594 7.78397C15.8594 8.37197 16.3354 8.84797 16.9234 8.84797Z"
    fill="black" />
  <path
    d="M18.9937 6.77595H19.4697C20.0577 6.77595 20.5337 6.29995 20.5337 5.71195C20.5337 5.12395 20.0577 4.64795 19.4697 4.64795H18.9937C18.4057 4.64795 17.9297 5.12395 17.9297 5.71195C17.9297 6.29995 18.4057 6.77595 18.9937 6.77595Z"
    fill="black" />
  <path
    d="M6.564 36.792H7.04C7.628 36.792 8.104 37.268 8.104 37.856C8.104 38.444 7.628 38.92 7.04 38.92H6.564C5.976 38.92 5.5 38.444 5.5 37.856C5.5 37.268 5.976 36.792 6.564 36.792Z"
    fill="black" />
  <path
    d="M8.63431 38.864H9.11031C9.69831 38.864 10.1743 39.34 10.1743 39.928C10.1743 40.516 9.69831 40.992 9.11031 40.992H8.63431C8.04631 40.992 7.57031 40.516 7.57031 39.928C7.57031 39.34 8.04631 38.864 8.63431 38.864Z"
    fill="black" />
  <path
    d="M10.7124 40.9359H11.1884C11.7764 40.9359 12.2524 41.4119 12.2524 41.9999C12.2524 42.5879 11.7764 43.0639 11.1884 43.0639H10.7124C10.1244 43.0639 9.64844 42.5879 9.64844 41.9999C9.64844 41.4119 10.1244 40.9359 10.7124 40.9359Z"
    fill="black" />
  <path
    d="M12.7827 43.0079H13.2588C13.8468 43.0079 14.3228 43.4839 14.3228 44.0719C14.3228 44.6599 13.8468 45.1359 13.2588 45.1359H12.7827C12.1947 45.1359 11.7188 44.6599 11.7188 44.0719C11.7188 43.4839 12.1947 43.0079 12.7827 43.0079Z"
    fill="black" />
  <path
    d="M14.8531 45.08H15.3291C15.9171 45.08 16.3931 45.556 16.3931 46.144C16.3931 46.732 15.9171 47.208 15.3291 47.208H14.8531C14.2651 47.208 13.7891 46.732 13.7891 46.144C13.7891 45.556 14.2651 45.08 14.8531 45.08Z"
    fill="black" />
  <path
    d="M16.9234 47.152H17.3994C17.9874 47.152 18.4634 47.628 18.4634 48.216C18.4634 48.804 17.9874 49.28 17.3994 49.28H16.9234C16.3354 49.28 15.8594 48.804 15.8594 48.216C15.8594 47.628 16.3354 47.152 16.9234 47.152Z"
    fill="black" />
  <path
    d="M18.9937 49.224H19.4697C20.0577 49.224 20.5337 49.7 20.5337 50.288C20.5337 50.876 20.0577 51.352 19.4697 51.352H18.9937C18.4057 51.352 17.9297 50.876 17.9297 50.288C17.9297 49.7 18.4057 49.224 18.9937 49.224Z"
    fill="black" />
  <path
    d="M49.6884 19.208H49.2124C48.6244 19.208 48.1484 18.732 48.1484 18.144C48.1484 17.556 48.6244 17.08 49.2124 17.08H49.6884C50.2764 17.08 50.7524 17.556 50.7524 18.144C50.7524 18.732 50.2764 19.208 49.6884 19.208Z"
    fill="black" />
  <path
    d="M47.6103 17.1359H47.1343C46.5463 17.1359 46.0703 16.6599 46.0703 16.0719C46.0703 15.4839 46.5463 15.0079 47.1343 15.0079H47.6103C48.1983 15.0079 48.6743 15.4839 48.6743 16.0719C48.6743 16.6599 48.1983 17.1359 47.6103 17.1359Z"
    fill="black" />
  <path
    d="M45.54 15.0639H45.064C44.476 15.0639 44 14.5879 44 13.9999C44 13.4119 44.476 12.9359 45.064 12.9359H45.54C46.128 12.9359 46.604 13.4119 46.604 13.9999C46.604 14.5879 46.128 15.0639 45.54 15.0639Z"
    fill="black" />
  <path
    d="M43.4697 12.992H42.9937C42.4057 12.992 41.9297 12.516 41.9297 11.928C41.9297 11.34 42.4057 10.864 42.9937 10.864H43.4697C44.0577 10.864 44.5337 11.34 44.5337 11.928C44.5337 12.516 44.0577 12.992 43.4697 12.992Z"
    fill="black" />
  <path
    d="M41.3994 10.92H40.9234C40.3354 10.92 39.8594 10.444 39.8594 9.85599C39.8594 9.26799 40.3354 8.79199 40.9234 8.79199H41.3994C41.9874 8.79199 42.4634 9.26799 42.4634 9.85599C42.4634 10.444 41.9874 10.92 41.3994 10.92Z"
    fill="black" />
  <path
    d="M39.3291 8.84797H38.8531C38.2651 8.84797 37.7891 8.37197 37.7891 7.78397C37.7891 7.19597 38.2651 6.71997 38.8531 6.71997H39.3291C39.9171 6.71997 40.3931 7.19597 40.3931 7.78397C40.3931 8.37197 39.9171 8.84797 39.3291 8.84797Z"
    fill="black" />
  <path
    d="M37.2509 6.77595H36.7749C36.1869 6.77595 35.7109 6.29995 35.7109 5.71195C35.7109 5.12395 36.1869 4.64795 36.7749 4.64795H37.2509C37.8389 4.64795 38.3149 5.12395 38.3149 5.71195C38.3149 6.29995 37.8389 6.77595 37.2509 6.77595Z"
    fill="black" />
  <path
    d="M49.6884 36.792H49.2124C48.6244 36.792 48.1484 37.268 48.1484 37.856C48.1484 38.444 48.6244 38.92 49.2124 38.92H49.6884C50.2764 38.92 50.7524 38.444 50.7524 37.856C50.7524 37.268 50.2764 36.792 49.6884 36.792Z"
    fill="black" />
  <path
    d="M47.6103 38.864H47.1343C46.5463 38.864 46.0703 39.34 46.0703 39.928C46.0703 40.516 46.5463 40.992 47.1343 40.992H47.6103C48.1983 40.992 48.6743 40.516 48.6743 39.928C48.6743 39.34 48.1983 38.864 47.6103 38.864Z"
    fill="black" />
  <path
    d="M45.54 40.9359H45.064C44.476 40.9359 44 41.4119 44 41.9999C44 42.5879 44.476 43.0639 45.064 43.0639H45.54C46.128 43.0639 46.604 42.5879 46.604 41.9999C46.604 41.4119 46.128 40.9359 45.54 40.9359Z"
    fill="black" />
  <path
    d="M43.4697 43.0079H42.9937C42.4057 43.0079 41.9297 43.4839 41.9297 44.0719C41.9297 44.6599 42.4057 45.1359 42.9937 45.1359H43.4697C44.0577 45.1359 44.5337 44.6599 44.5337 44.0719C44.5337 43.4839 44.0577 43.0079 43.4697 43.0079Z"
    fill="black" />
  <path
    d="M41.3994 45.08H40.9234C40.3354 45.08 39.8594 45.556 39.8594 46.144C39.8594 46.732 40.3354 47.208 40.9234 47.208H41.3994C41.9874 47.208 42.4634 46.732 42.4634 46.144C42.4634 45.556 41.9874 45.08 41.3994 45.08Z"
    fill="black" />
  <path
    d="M39.3291 47.152H38.8531C38.2651 47.152 37.7891 47.628 37.7891 48.216C37.7891 48.804 38.2651 49.28 38.8531 49.28H39.3291C39.9171 49.28 40.3931 48.804 40.3931 48.216C40.3931 47.628 39.9171 47.152 39.3291 47.152Z"
    fill="black" />
  <path
    d="M37.2509 49.224H36.7749C36.1869 49.224 35.7109 49.7 35.7109 50.288C35.7109 50.876 36.1869 51.352 36.7749 51.352H37.2509C37.8389 51.352 38.3149 50.876 38.3149 50.288C38.3149 49.7 37.8389 49.224 37.2509 49.224Z"
    fill="black" />
  <path
    d="M7.34931 31.9479C7.34931 32.0319 7.37731 32.0599 7.43331 32.0599C7.46131 32.0879 7.60131 32.1439 7.68531 32.1999C7.90931 32.3959 8.04931 32.6479 8.04931 32.9839V33.0119C8.04931 33.5999 7.57331 34.0759 6.98531 34.0759H6.50931C5.92131 34.0759 5.44531 33.5999 5.44531 33.0119C5.44531 32.7039 5.58531 32.4239 5.80931 32.2279C5.89331 32.1439 6.03331 32.0879 6.06131 32.0879C6.08931 32.0599 6.14531 32.0319 6.14531 32.0039C6.14531 31.9759 6.14531 31.9759 6.14531 31.9759V31.9479C6.14531 31.9479 6.14531 31.9479 6.14531 31.9199C6.14531 31.8639 6.11731 31.8359 6.06131 31.8359C6.03331 31.8079 5.89331 31.7519 5.80931 31.6959C5.58531 31.4999 5.44531 31.2199 5.44531 30.9119C5.44531 30.6039 5.58531 30.3239 5.80931 30.1279C5.89331 30.0439 6.03331 29.9879 6.06131 29.9879C6.08931 29.9599 6.14531 29.9319 6.14531 29.9039C6.14531 29.8759 6.14531 29.8759 6.14531 29.8759C6.14531 29.8759 6.14531 29.8759 6.14531 29.8479C6.14531 29.7919 6.11731 29.7639 6.06131 29.7639C6.03331 29.7359 5.89331 29.6799 5.80931 29.6239C5.58531 29.4279 5.44531 29.1479 5.44531 28.8399C5.44531 28.5319 5.58531 28.2519 5.80931 28.0559C5.89331 27.9719 6.03331 27.9159 6.06131 27.9159C6.08931 27.8879 6.14531 27.8599 6.14531 27.8319C6.14531 27.8039 6.14531 27.8039 6.14531 27.8039V27.7759C6.14531 27.7759 6.14531 27.7759 6.14531 27.7479C6.14531 27.6919 6.11731 27.6639 6.06131 27.6639C6.03331 27.6359 5.89331 27.5799 5.80931 27.5239C5.58531 27.3279 5.44531 27.0479 5.44531 26.7399C5.44531 26.4319 5.58531 26.1519 5.80931 25.9559C5.89331 25.8719 6.03331 25.8159 6.06131 25.8159C6.08931 25.7879 6.14531 25.7599 6.14531 25.7319C6.14531 25.7039 6.14531 25.7039 6.14531 25.7039C6.14531 25.7039 6.14531 25.7039 6.14531 25.6759C6.14531 25.6199 6.11731 25.5919 6.06131 25.5919C6.03331 25.5639 5.89331 25.5079 5.80931 25.4519C5.58531 25.2559 5.44531 24.9759 5.44531 24.6679C5.44531 24.3599 5.58531 24.0799 5.80931 23.8839C5.89331 23.7999 6.03331 23.7439 6.06131 23.7439C6.08931 23.7159 6.14531 23.6879 6.14531 23.6599C6.14531 23.6319 6.14531 23.6319 6.14531 23.6039C6.14531 23.5479 6.11731 23.5199 6.06131 23.5199C6.03331 23.4919 5.89331 23.4359 5.80931 23.3799C5.58531 23.1839 5.44531 22.9319 5.44531 22.5959V22.5679C5.44531 21.9799 5.92131 21.5039 6.50931 21.5039H6.98531C7.57331 21.5039 8.04931 21.9799 8.04931 22.5679C8.04931 22.8759 7.90931 23.1559 7.68531 23.3519C7.60131 23.4359 7.46131 23.4919 7.43331 23.4919C7.40531 23.5199 7.34931 23.5479 7.34931 23.5759C7.34931 23.6039 7.34931 23.6039 7.34931 23.6319C7.34931 23.6879 7.37731 23.7159 7.43331 23.7159C7.46131 23.7439 7.60131 23.7999 7.68531 23.8559C7.90931 24.0519 8.04931 24.3319 8.04931 24.6399C8.04931 24.9479 7.90931 25.2279 7.68531 25.4239C7.60131 25.5079 7.46131 25.5639 7.43331 25.5639C7.40531 25.5919 7.34931 25.6199 7.34931 25.6479C7.34931 25.6759 7.34931 25.6759 7.34931 25.6759C7.34931 25.6759 7.34931 25.6759 7.34931 25.7039C7.34931 25.7599 7.37731 25.7879 7.43331 25.7879C7.46131 25.8159 7.60131 25.8719 7.68531 25.9279C7.90931 26.1239 8.04931 26.4039 8.04931 26.7119C8.04931 27.0199 7.90931 27.2999 7.68531 27.4959C7.60131 27.5799 7.46131 27.6359 7.43331 27.6359C7.40531 27.6639 7.34931 27.6919 7.34931 27.7199C7.34931 27.7479 7.34931 27.7479 7.34931 27.7479V27.7759C7.34931 27.7759 7.34931 27.7759 7.34931 27.8039C7.34931 27.8599 7.37731 27.8879 7.43331 27.8879C7.46131 27.9159 7.60131 27.9719 7.68531 28.0279C7.90931 28.2239 8.04931 28.5039 8.04931 28.8119C8.04931 29.1199 7.90931 29.3999 7.68531 29.5959C7.60131 29.6799 7.46131 29.7359 7.43331 29.7359C7.40531 29.7639 7.34931 29.7919 7.34931 29.8199C7.34931 29.8479 7.34931 29.8479 7.34931 29.8479C7.34931 29.8479 7.34931 29.8479 7.34931 29.8759C7.34931 29.9319 7.37731 29.9599 7.43331 29.9599C7.46131 29.9879 7.60131 30.0439 7.68531 30.0999C7.90931 30.2959 8.04931 30.5759 8.04931 30.8839C8.04931 31.1919 7.90931 31.4719 7.68531 31.6679C7.60131 31.7519 7.46131 31.8079 7.43331 31.8079C7.40531 31.8359 7.34931 31.8639 7.34931 31.8919C7.34931 31.9199 7.34931 31.9199 7.34931 31.9479Z"
    fill="black" />
  <path
    d="M48.9031 32.62C48.9031 32.704 48.8751 32.732 48.8191 32.732C48.7911 32.76 48.6511 32.816 48.5671 32.872C48.3431 33.068 48.2031 33.32 48.2031 33.656V33.684C48.2031 34.272 48.6791 34.748 49.2671 34.748H49.7431C50.3311 34.748 50.8071 34.272 50.8071 33.684C50.8071 33.376 50.6671 33.096 50.4431 32.9C50.3591 32.816 50.2191 32.76 50.1911 32.76C50.1631 32.732 50.1071 32.704 50.1071 32.676C50.1071 32.648 50.1071 32.648 50.1071 32.648V32.62C50.1071 32.62 50.1071 32.62 50.1071 32.592C50.1071 32.536 50.1351 32.508 50.1911 32.508C50.2191 32.48 50.3591 32.424 50.4431 32.368C50.6671 32.172 50.8071 31.892 50.8071 31.584C50.8071 31.276 50.6671 30.996 50.4431 30.8C50.3591 30.716 50.2191 30.66 50.1911 30.66C50.1631 30.632 50.1071 30.604 50.1071 30.576C50.1071 30.548 50.1071 30.548 50.1071 30.548C50.1071 30.548 50.1071 30.548 50.1071 30.52C50.1071 30.464 50.1351 30.436 50.1911 30.436C50.2191 30.408 50.3591 30.352 50.4431 30.296C50.6671 30.1 50.8071 29.82 50.8071 29.512C50.8071 29.204 50.6671 28.924 50.4431 28.728C50.3591 28.644 50.2191 28.588 50.1911 28.588C50.1631 28.56 50.1071 28.532 50.1071 28.504C50.1071 28.476 50.1071 28.476 50.1071 28.476V28.448C50.1071 28.448 50.1071 28.448 50.1071 28.42C50.1071 28.364 50.1351 28.336 50.1911 28.336C50.2191 28.308 50.3591 28.252 50.4431 28.196C50.6671 28 50.8071 27.72 50.8071 27.412C50.8071 27.104 50.6671 26.824 50.4431 26.628C50.3591 26.544 50.2191 26.488 50.1911 26.488C50.1631 26.46 50.1071 26.432 50.1071 26.404C50.1071 26.376 50.1071 26.376 50.1071 26.376C50.1071 26.376 50.1071 26.376 50.1071 26.348C50.1071 26.292 50.1351 26.264 50.1911 26.264C50.2191 26.236 50.3591 26.18 50.4431 26.124C50.6671 25.928 50.8071 25.648 50.8071 25.34C50.8071 25.032 50.6671 24.752 50.4431 24.556C50.3591 24.472 50.2191 24.416 50.1911 24.416C50.1631 24.388 50.1071 24.36 50.1071 24.332C50.1071 24.304 50.1071 24.304 50.1071 24.276C50.1071 24.22 50.1351 24.192 50.1911 24.192C50.2191 24.164 50.3591 24.108 50.4431 24.052C50.6671 23.856 50.8071 23.604 50.8071 23.268V23.24C50.8071 22.652 50.3311 22.176 49.7431 22.176H49.2671C48.6791 22.176 48.2031 22.652 48.2031 23.24C48.2031 23.548 48.3431 23.828 48.5671 24.024C48.6511 24.108 48.7911 24.164 48.8191 24.164C48.8471 24.192 48.9031 24.22 48.9031 24.248C48.9031 24.276 48.9031 24.276 48.9031 24.304C48.9031 24.36 48.8751 24.388 48.8191 24.388C48.7911 24.416 48.6511 24.472 48.5671 24.528C48.3431 24.724 48.2031 25.004 48.2031 25.312C48.2031 25.62 48.3431 25.9 48.5671 26.096C48.6511 26.18 48.7911 26.236 48.8191 26.236C48.8471 26.264 48.9031 26.292 48.9031 26.32C48.9031 26.348 48.9031 26.348 48.9031 26.348C48.9031 26.348 48.9031 26.348 48.9031 26.376C48.9031 26.432 48.8751 26.46 48.8191 26.46C48.7911 26.488 48.6511 26.544 48.5671 26.6C48.3431 26.796 48.2031 27.076 48.2031 27.384C48.2031 27.692 48.3431 27.972 48.5671 28.168C48.6511 28.252 48.7911 28.308 48.8191 28.308C48.8471 28.336 48.9031 28.364 48.9031 28.392C48.9031 28.42 48.9031 28.42 48.9031 28.42V28.448C48.9031 28.448 48.9031 28.448 48.9031 28.476C48.9031 28.532 48.8751 28.56 48.8191 28.56C48.7911 28.588 48.6511 28.644 48.5671 28.7C48.3431 28.896 48.2031 29.176 48.2031 29.484C48.2031 29.792 48.3431 30.072 48.5671 30.268C48.6511 30.352 48.7911 30.408 48.8191 30.408C48.8471 30.436 48.9031 30.464 48.9031 30.492C48.9031 30.52 48.9031 30.52 48.9031 30.52C48.9031 30.52 48.9031 30.52 48.9031 30.548C48.9031 30.604 48.8751 30.632 48.8191 30.632C48.7911 30.66 48.6511 30.716 48.5671 30.772C48.3431 30.968 48.2031 31.248 48.2031 31.556C48.2031 31.864 48.3431 32.144 48.5671 32.34C48.6511 32.424 48.7911 32.48 48.8191 32.48C48.8471 32.508 48.9031 32.536 48.9031 32.564C48.9031 32.592 48.9031 32.592 48.9031 32.62Z"
    fill="black" />
  <path
    d="M20.064 26.1519H20.54C21.128 26.1519 21.604 25.6759 21.604 25.0879C21.604 24.4999 21.128 24.0239 20.54 24.0239H20.064C19.476 24.0239 19 24.4999 19 25.0879C19 25.6759 19.476 26.1519 20.064 26.1519Z"
    fill="black" />
  <path
    d="M21.9401 21.364H22.4161C23.0041 21.364 23.4801 20.888 23.4801 20.3C23.4801 19.712 23.0041 19.236 22.4161 19.236H21.9401C21.3521 19.236 20.8761 19.712 20.8761 20.3C20.8481 20.888 21.3521 21.364 21.9401 21.364Z"
    fill="black" />
  <path
    d="M18.2136 21.3919H18.6896C19.2776 21.3919 19.7535 20.9159 19.7535 20.3279C19.7535 19.7399 19.2776 19.2639 18.6896 19.2639H18.2136C17.6256 19.2639 17.1496 19.7399 17.1496 20.3279C17.1216 20.8879 17.6256 21.3919 18.2136 21.3919Z"
    fill="black" />
  <path
    d="M20.064 22.932H20.54C21.128 22.932 21.604 22.456 21.604 21.868C21.604 21.28 21.128 20.804 20.54 20.804H20.064C19.476 20.804 19 21.28 19 21.868C19 22.456 19.476 22.932 20.064 22.932Z"
    fill="black" />
  <path
    d="M23.4558 22.932H23.9318C24.5198 22.932 24.9958 22.456 24.9958 21.868C24.9958 21.28 24.5198 20.804 23.9318 20.804H23.4558C22.8678 20.804 22.3918 21.28 22.3918 21.868C22.3638 22.456 22.8398 22.932 23.4558 22.932Z"
    fill="black" />
  <path
    d="M16.7046 20.804H17.1806C17.7686 20.804 18.2446 21.28 18.2446 21.868C18.2446 22.456 17.7686 22.932 17.1806 22.932H16.7046C16.1166 22.932 15.6406 22.456 15.6406 21.868C15.6406 21.28 16.1166 20.804 16.7046 20.804Z"
    fill="black" />
  <path
    d="M21.8296 24.5559H22.3056C22.8936 24.5559 23.3696 24.0799 23.3696 23.4919C23.3696 22.9039 22.8936 22.4279 22.3056 22.4279H21.8296C21.2416 22.4279 20.7656 22.9039 20.7656 23.4919C20.7656 24.0799 21.2416 24.5559 21.8296 24.5559Z"
    fill="black" />
  <path
    d="M18.3307 22.3999H18.8067C19.3947 22.3999 19.8707 22.8759 19.8707 23.4639C19.8707 24.0519 19.3947 24.5279 18.8067 24.5279H18.3307C17.7427 24.5279 17.2667 24.0519 17.2667 23.4639C17.2387 22.8759 17.7427 22.3999 18.3307 22.3999Z"
    fill="black" />
  <path
    d="M35.7214 26.1519H36.1974C36.7854 26.1519 37.2614 25.6759 37.2614 25.0879C37.2614 24.4999 36.7854 24.0239 36.1974 24.0239H35.7214C35.1334 24.0239 34.6574 24.4999 34.6574 25.0879C34.6294 25.6759 35.1054 26.1519 35.7214 26.1519Z"
    fill="black" />
  <path
    d="M37.5718 21.364H38.0478C38.6358 21.364 39.1118 20.888 39.1118 20.3C39.1118 19.712 38.6358 19.236 38.0478 19.236H37.5718C36.9838 19.236 36.5078 19.712 36.5078 20.3C36.5078 20.888 36.9838 21.364 37.5718 21.364Z"
    fill="black" />
  <path
    d="M33.8453 21.3919H34.3212C34.9092 21.3919 35.3853 20.9159 35.3853 20.3279C35.3853 19.7399 34.9092 19.2639 34.3212 19.2639H33.8453C33.2573 19.2639 32.7813 19.7399 32.7813 20.3279C32.7812 20.8879 33.2573 21.3919 33.8453 21.3919Z"
    fill="black" />
  <path
    d="M35.7214 22.932H36.1974C36.7854 22.932 37.2614 22.456 37.2614 21.868C37.2614 21.28 36.7854 20.804 36.1974 20.804H35.7214C35.1334 20.804 34.6574 21.28 34.6574 21.868C34.6294 22.456 35.1054 22.932 35.7214 22.932Z"
    fill="black" />
  <path
    d="M39.0796 22.932H39.5556C40.1436 22.932 40.6196 22.456 40.6196 21.868C40.6196 21.28 40.1436 20.804 39.5556 20.804H39.0796C38.4916 20.804 38.0156 21.28 38.0156 21.868C38.0156 22.456 38.4916 22.932 39.0796 22.932Z"
    fill="black" />
  <path
    d="M32.3296 20.804H32.8056C33.3936 20.804 33.8696 21.28 33.8696 21.868C33.8696 22.456 33.3936 22.932 32.8056 22.932H32.3296C31.7416 22.932 31.2656 22.456 31.2656 21.868C31.2656 21.28 31.7416 20.804 32.3296 20.804Z"
    fill="black" />
  <path
    d="M37.4546 24.5559H37.9306C38.5186 24.5559 38.9946 24.0799 38.9946 23.4919C38.9946 22.9039 38.5186 22.4279 37.9306 22.4279H37.4546C36.8666 22.4279 36.3906 22.9039 36.3906 23.4919C36.3906 24.0799 36.8666 24.5559 37.4546 24.5559Z"
    fill="black" />
  <path
    d="M33.9546 22.3999H34.4306C35.0186 22.3999 35.4946 22.8759 35.4946 23.4639C35.4946 24.0519 35.0186 24.5279 34.4306 24.5279H33.9546C33.3666 24.5279 32.8906 24.0519 32.8906 23.4639C32.8906 22.8759 33.3666 22.3999 33.9546 22.3999Z"
    fill="black" />
  <path
    d="M24.7656 42.14C24.7656 41.664 25.1296 41.3 25.6056 41.3H30.6456C31.1216 41.3 31.4856 41.664 31.4856 42.14C31.4856 42.616 31.1216 42.98 30.6456 42.98H25.6056C25.1576 42.98 24.7656 42.616 24.7656 42.14Z"
    fill="black" />
  <path
    d="M21.1016 36.344C21.1016 35.868 21.4656 35.504 21.9416 35.504H34.2896C34.7656 35.504 35.1296 35.868 35.1296 36.344C35.1296 36.82 34.7656 37.184 34.2896 37.184H21.9416C21.4936 37.184 21.1016 36.792 21.1016 36.344Z"
    fill="black" />
  <path
    d="M35.4619 37.968H34.9859C34.3979 37.968 33.9219 38.444 33.9219 39.032C33.9219 39.62 34.3979 40.096 34.9859 40.096H35.4619C36.0499 40.096 36.5259 39.62 36.5259 39.032C36.5259 38.472 36.0499 37.968 35.4619 37.968Z"
    fill="black" />
  <path
    d="M33.4988 40.04H33.0788C32.4908 40.04 31.9588 40.488 31.9308 41.076C31.9028 41.692 32.4068 42.196 32.9948 42.196H33.4148C34.0028 42.196 34.5348 41.748 34.5628 41.16C34.5908 40.544 34.1148 40.04 33.4988 40.04Z"
    fill="black" />
  <path
    d="M21.2666 37.968H20.7906C20.2026 37.968 19.7266 38.444 19.7266 39.032C19.7266 39.62 20.2026 40.096 20.7906 40.096H21.2666C21.8546 40.096 22.3306 39.62 22.3306 39.032C22.3306 38.472 21.8546 37.968 21.2666 37.968Z"
    fill="black" />
  <path
    d="M23.3369 40.04H22.8609C22.2729 40.04 21.7969 40.516 21.7969 41.104C21.7969 41.692 22.2729 42.168 22.8609 42.168H23.3369C23.9249 42.168 24.4009 41.692 24.4009 41.104C24.4009 40.516 23.9249 40.04 23.3369 40.04Z"
    fill="black" />
  <path
    d="M38.5478 34.636H38.0718C37.4838 34.636 37.0078 35.112 37.0078 35.7C37.0078 36.288 37.4838 36.764 38.0718 36.764H38.5478C39.1358 36.764 39.6118 36.288 39.6118 35.7C39.6118 35.112 39.1358 34.636 38.5478 34.636Z"
    fill="black" />
  <path
    d="M18.1884 34.636H17.7124C17.1244 34.636 16.6484 35.112 16.6484 35.7C16.6484 36.288 17.1244 36.764 17.7124 36.764H18.1884C18.7764 36.764 19.2524 36.288 19.2524 35.7C19.2804 35.112 18.8044 34.636 18.1884 34.636Z"
    fill="black" />
</svg>
  